<svg width="635" height="50" viewBox="0 0 635 50" fill="none" xmlns="http://www.w3.org/2000/svg">
<mask id="path-1-outside-1_139_971" maskUnits="userSpaceOnUse" x="33" y="8.37891" width="135" height="34" fill="black">
<rect fill="white" x="33" y="8.37891" width="135" height="34"/>
<path d="M34.44 21.0589C34.6 18.7389 35.36 16.7389 36.72 15.0589C38.08 13.3522 39.88 12.0456 42.12 11.1389C44.3867 10.2056 46.9467 9.7389 49.8 9.7389C52.52 9.7389 54.8933 10.1522 56.92 10.9789C58.9467 11.8056 60.5333 12.9656 61.68 14.4589C62.8267 15.9522 63.4 17.6722 63.4 19.6189C63.4 21.1389 63 22.5522 62.2 23.8589C61.4 25.1389 60.1333 26.4189 58.4 27.6989C56.6667 28.9789 54.3867 30.3389 51.56 31.7789L42.88 36.3389L42.48 34.3789H64.24V40.3789H34.96V35.0989L47.84 27.6989C49.8933 26.5256 51.4933 25.5256 52.64 24.6989C53.8133 23.8456 54.64 23.0589 55.12 22.3389C55.6 21.6189 55.84 20.8456 55.84 20.0189C55.84 19.1656 55.6 18.4056 55.12 17.7389C54.6667 17.0722 53.9733 16.5522 53.04 16.1789C52.1067 15.8056 50.9333 15.6189 49.52 15.6189C47.84 15.6189 46.4533 15.8722 45.36 16.3789C44.2667 16.8589 43.4533 17.5122 42.92 18.3389C42.3867 19.1656 42.0667 20.0722 41.96 21.0589H34.44ZM84.2897 41.0189C80.903 41.0189 77.9697 40.3656 75.4897 39.0589C73.0097 37.7522 71.0897 35.9389 69.7297 33.6189C68.3697 31.2722 67.6897 28.5256 67.6897 25.3789C67.6897 22.2589 68.3697 19.5256 69.7297 17.1789C71.0897 14.8322 73.0097 13.0056 75.4897 11.6989C77.9697 10.3922 80.903 9.7389 84.2897 9.7389C87.6497 9.7389 90.5697 10.3922 93.0497 11.6989C95.5297 13.0056 97.4497 14.8322 98.8097 17.1789C100.17 19.4989 100.85 22.2322 100.85 25.3789C100.85 28.4989 100.17 31.2322 98.8097 33.5789C97.4497 35.9256 95.5297 37.7522 93.0497 39.0589C90.5697 40.3656 87.6497 41.0189 84.2897 41.0189ZM84.2897 34.8589C87.143 34.8589 89.3564 34.0322 90.9297 32.3789C92.5297 30.7256 93.3297 28.3922 93.3297 25.3789C93.3297 22.3656 92.5297 20.0322 90.9297 18.3789C89.3564 16.7256 87.143 15.8989 84.2897 15.8989C81.4364 15.8989 79.2097 16.7256 77.6097 18.3789C76.0097 20.0322 75.2097 22.3656 75.2097 25.3789C75.2097 28.3922 76.0097 30.7256 77.6097 32.3789C79.2097 34.0322 81.4364 34.8589 84.2897 34.8589ZM104.049 21.0589C104.209 18.7389 104.969 16.7389 106.329 15.0589C107.689 13.3522 109.489 12.0456 111.729 11.1389C113.996 10.2056 116.556 9.7389 119.409 9.7389C122.129 9.7389 124.503 10.1522 126.529 10.9789C128.556 11.8056 130.143 12.9656 131.289 14.4589C132.436 15.9522 133.009 17.6722 133.009 19.6189C133.009 21.1389 132.609 22.5522 131.809 23.8589C131.009 25.1389 129.743 26.4189 128.009 27.6989C126.276 28.9789 123.996 30.3389 121.169 31.7789L112.489 36.3389L112.089 34.3789H133.849V40.3789H104.569V35.0989L117.449 27.6989C119.503 26.5256 121.103 25.5256 122.249 24.6989C123.423 23.8456 124.249 23.0589 124.729 22.3389C125.209 21.6189 125.449 20.8456 125.449 20.0189C125.449 19.1656 125.209 18.4056 124.729 17.7389C124.276 17.0722 123.583 16.5522 122.649 16.1789C121.716 15.8056 120.543 15.6189 119.129 15.6189C117.449 15.6189 116.063 15.8722 114.969 16.3789C113.876 16.8589 113.063 17.5122 112.529 18.3389C111.996 19.1656 111.676 20.0722 111.569 21.0589H104.049ZM137.539 19.9789C137.672 18.0856 138.339 16.3656 139.539 14.8189C140.739 13.2722 142.446 12.0456 144.659 11.1389C146.899 10.2056 149.592 9.7389 152.739 9.7389C155.486 9.7389 157.859 10.0989 159.859 10.8189C161.886 11.5122 163.459 12.4856 164.579 13.7389C165.699 14.9656 166.259 16.4189 166.259 18.0989C166.259 19.4589 165.846 20.6989 165.019 21.8189C164.219 22.9122 162.952 23.7922 161.219 24.4589C159.486 25.0989 157.272 25.4056 154.579 25.3789V24.5789C157.139 24.4456 159.339 24.6322 161.179 25.1389C163.019 25.6456 164.432 26.4456 165.419 27.5389C166.406 28.6322 166.899 30.0056 166.899 31.6589C166.899 33.4722 166.326 35.0856 165.179 36.4989C164.032 37.8856 162.352 38.9922 160.139 39.8189C157.952 40.6189 155.286 41.0189 152.139 41.0189C149.072 41.0189 146.392 40.5922 144.099 39.7389C141.832 38.8589 140.059 37.6456 138.779 36.0989C137.526 34.5256 136.846 32.6856 136.739 30.5789H144.259C144.472 32.0456 145.219 33.1789 146.499 33.9789C147.806 34.7522 149.686 35.1389 152.139 35.1389C154.459 35.1389 156.219 34.7922 157.419 34.0989C158.646 33.3789 159.259 32.3789 159.259 31.0989C159.259 30.3522 159.059 29.7389 158.659 29.2589C158.259 28.7522 157.579 28.3656 156.619 28.0989C155.659 27.8322 154.326 27.6989 152.619 27.6989H147.419V22.5389H152.619C154.832 22.5389 156.392 22.2322 157.299 21.6189C158.206 20.9789 158.659 20.1522 158.659 19.1389C158.659 18.0189 158.126 17.1522 157.059 16.5389C156.019 15.9256 154.446 15.6189 152.339 15.6189C150.152 15.6189 148.446 15.9922 147.219 16.7389C146.019 17.4856 145.299 18.5656 145.059 19.9789H137.539Z"/>
</mask>
<path d="M34.44 21.0589L33.4424 20.9901L33.3687 22.0589H34.44V21.0589ZM36.72 15.0589L37.4973 15.6881L37.5021 15.6821L36.72 15.0589ZM42.12 11.1389L42.4952 12.0659L42.5008 12.0636L42.12 11.1389ZM56.92 10.9789L56.5423 11.9048L56.5423 11.9048L56.92 10.9789ZM61.68 14.4589L60.8868 15.0679L60.8869 15.0679L61.68 14.4589ZM62.2 23.8589L63.048 24.3889L63.0529 24.3811L62.2 23.8589ZM58.4 27.6989L58.994 28.5033L58.994 28.5033L58.4 27.6989ZM51.56 31.7789L51.106 30.8878L51.0949 30.8936L51.56 31.7789ZM42.88 36.3389L41.9002 36.5389L42.1664 37.8434L43.3451 37.2242L42.88 36.3389ZM42.48 34.3789V33.3789H41.2553L41.5002 34.5789L42.48 34.3789ZM64.24 34.3789H65.24V33.3789H64.24V34.3789ZM64.24 40.3789V41.3789H65.24V40.3789H64.24ZM34.96 40.3789H33.96V41.3789H34.96V40.3789ZM34.96 35.0989L34.4618 34.2318L33.96 34.5201V35.0989H34.96ZM47.84 27.6989L47.3439 26.8307L47.3418 26.8318L47.84 27.6989ZM52.64 24.6989L53.2248 25.5101L53.2282 25.5076L52.64 24.6989ZM55.12 22.3389L54.288 21.7842L54.288 21.7842L55.12 22.3389ZM55.12 17.7389L54.2931 18.3012L54.3006 18.3123L54.3085 18.3232L55.12 17.7389ZM53.04 16.1789L53.4114 15.2504L53.4114 15.2504L53.04 16.1789ZM45.36 16.3789L45.762 17.2945L45.7713 17.2905L45.7805 17.2862L45.36 16.3789ZM42.92 18.3389L43.7603 18.881L43.7603 18.881L42.92 18.3389ZM41.96 21.0589V22.0589H42.8577L42.9542 21.1664L41.96 21.0589ZM35.4376 21.1277C35.5846 18.9963 36.2765 17.1961 37.4972 15.6881L35.9428 14.4297C34.4435 16.2817 33.6154 18.4815 33.4424 20.9901L35.4376 21.1277ZM37.5021 15.6821C38.7436 14.1241 40.3972 12.9151 42.4952 12.0659L41.7448 10.212C39.3628 11.1761 37.4164 12.5804 35.9379 14.4357L37.5021 15.6821ZM42.5008 12.0636C44.6285 11.1874 47.0561 10.7389 49.8 10.7389V8.7389C46.8372 8.7389 44.1448 9.2237 41.7393 10.2142L42.5008 12.0636ZM49.8 10.7389C52.4209 10.7389 54.6608 11.1374 56.5423 11.9048L57.2977 10.053C55.1259 9.16709 52.6191 8.7389 49.8 8.7389V10.7389ZM56.5423 11.9048C58.4318 12.6756 59.8646 13.7366 60.8868 15.0679L62.4732 13.8499C61.2021 12.1945 59.4615 10.9356 57.2977 10.053L56.5423 11.9048ZM60.8869 15.0679C61.8946 16.3803 62.4 17.8844 62.4 19.6189H64.4C64.4 17.46 63.7588 15.5242 62.4732 13.8499L60.8869 15.0679ZM62.4 19.6189C62.4 20.9531 62.0517 22.1859 61.3471 23.3368L63.0529 24.3811C63.9483 22.9185 64.4 21.3247 64.4 19.6189H62.4ZM61.352 23.3289C60.6406 24.4671 59.4779 25.6598 57.806 26.8945L58.994 28.5033C60.7887 27.178 62.1594 25.8107 63.048 24.3889L61.352 23.3289ZM57.806 26.8945C56.1322 28.1305 53.9043 29.4623 51.1061 30.8879L52.0139 32.6699C54.869 31.2155 57.2011 29.8274 58.994 28.5033L57.806 26.8945ZM51.0949 30.8936L42.4149 35.4536L43.3451 37.2242L52.0251 32.6642L51.0949 30.8936ZM43.8598 36.1389L43.4598 34.1789L41.5002 34.5789L41.9002 36.5389L43.8598 36.1389ZM42.48 35.3789H64.24V33.3789H42.48V35.3789ZM63.24 34.3789V40.3789H65.24V34.3789H63.24ZM64.24 39.3789H34.96V41.3789H64.24V39.3789ZM35.96 40.3789V35.0989H33.96V40.3789H35.96ZM35.4582 35.966L48.3382 28.566L47.3418 26.8318L34.4618 34.2318L35.4582 35.966ZM48.3361 28.5671C50.4027 27.3863 52.037 26.3664 53.2248 25.5101L52.0552 23.8877C50.9496 24.6848 49.384 25.6649 47.3439 26.8307L48.3361 28.5671ZM53.2282 25.5076C54.4415 24.6253 55.3768 23.7565 55.9521 22.8936L54.288 21.7842C53.9032 22.3613 53.1852 23.0659 52.0518 23.8902L53.2282 25.5076ZM55.9521 22.8936C56.5362 22.0174 56.84 21.0525 56.84 20.0189H54.84C54.84 20.6386 54.6638 21.2204 54.288 21.7842L55.9521 22.8936ZM56.84 20.0189C56.84 18.9645 56.539 17.9984 55.9315 17.1546L54.3085 18.3232C54.661 18.8128 54.84 19.3666 54.84 20.0189H56.84ZM55.9469 17.1766C55.3567 16.3087 54.4838 15.6794 53.4114 15.2504L52.6686 17.1074C53.4628 17.4251 53.9766 17.8358 54.2931 18.3012L55.9469 17.1766ZM53.4114 15.2504C52.3224 14.8149 51.0127 14.6189 49.52 14.6189V16.6189C50.8539 16.6189 51.8909 16.7963 52.6686 17.1074L53.4114 15.2504ZM49.52 14.6189C47.7484 14.6189 46.2059 14.8848 44.9395 15.4716L45.7805 17.2862C46.7008 16.8597 47.9316 16.6189 49.52 16.6189V14.6189ZM44.958 15.4633C43.7239 16.0051 42.7402 16.773 42.0797 17.7968L43.7603 18.881C44.1665 18.2515 44.8094 17.7127 45.762 17.2945L44.958 15.4633ZM42.0797 17.7968C41.4611 18.7555 41.0891 19.8113 40.9658 20.9514L42.9542 21.1664C43.0443 20.3332 43.3122 19.5756 43.7603 18.881L42.0797 17.7968ZM41.96 20.0589H34.44V22.0589H41.96V20.0589ZM75.4897 39.0589L75.0235 39.9436L75.0235 39.9436L75.4897 39.0589ZM69.7297 33.6189L68.8645 34.1203L68.867 34.1246L69.7297 33.6189ZM69.7297 17.1789L68.8645 16.6775L68.8645 16.6775L69.7297 17.1789ZM75.4897 11.6989L75.9558 12.5836L75.9558 12.5836L75.4897 11.6989ZM93.0497 11.6989L92.5836 12.5836L92.5836 12.5836L93.0497 11.6989ZM98.8097 17.1789L97.9445 17.6803L97.947 17.6846L98.8097 17.1789ZM98.8097 33.5789L99.6749 34.0803L99.6749 34.0803L98.8097 33.5789ZM93.0497 39.0589L93.5158 39.9436L93.0497 39.0589ZM90.9297 32.3789L90.2111 31.6835L90.2053 31.6895L90.9297 32.3789ZM90.9297 18.3789L90.2052 19.0683L90.2111 19.0743L90.9297 18.3789ZM77.6097 18.3789L78.3283 19.0743L78.3283 19.0743L77.6097 18.3789ZM77.6097 32.3789L76.8911 33.0743L76.8911 33.0743L77.6097 32.3789ZM84.2897 40.0189C81.0319 40.0189 78.2651 39.3909 75.9558 38.1742L75.0235 39.9436C77.6742 41.3402 80.7741 42.0189 84.2897 42.0189V40.0189ZM75.9558 38.1742C73.6334 36.9506 71.854 35.2654 70.5924 33.1132L68.867 34.1246C70.3254 36.6125 72.386 38.5539 75.0235 39.9436L75.9558 38.1742ZM70.5949 33.1175C69.3365 30.9461 68.6897 28.378 68.6897 25.3789H66.6897C66.6897 28.6731 67.4029 31.5984 68.8645 34.1203L70.5949 33.1175ZM68.6897 25.3789C68.6897 22.4082 69.3357 19.853 70.5949 17.6803L68.8645 16.6775C67.4036 19.1982 66.6897 22.1097 66.6897 25.3789H68.6897ZM70.5949 17.6803C71.8573 15.5021 73.6364 13.8057 75.9558 12.5836L75.0235 10.8142C72.383 12.2055 70.3221 14.1624 68.8645 16.6775L70.5949 17.6803ZM75.9558 12.5836C78.2651 11.3669 81.0319 10.7389 84.2897 10.7389V8.7389C80.7741 8.7389 77.6742 9.41759 75.0235 10.8142L75.9558 12.5836ZM84.2897 10.7389C87.5193 10.7389 90.2732 11.3663 92.5836 12.5836L93.5158 10.8142C90.8662 9.41815 87.7801 8.7389 84.2897 8.7389V10.7389ZM92.5836 12.5836C94.903 13.8057 96.6821 15.5021 97.9445 17.6803L99.6749 16.6775C98.2173 14.1624 96.1564 12.2055 93.5158 10.8142L92.5836 12.5836ZM97.947 17.6846C99.2028 19.8269 99.8497 22.3795 99.8497 25.3789H101.85C101.85 22.085 101.137 19.1709 99.6724 16.6732L97.947 17.6846ZM99.8497 25.3789C99.8497 28.3497 99.2036 30.9048 97.9445 33.0775L99.6749 34.0803C101.136 31.5596 101.85 28.6482 101.85 25.3789H99.8497ZM97.9445 33.0775C96.6821 35.2557 94.903 36.9521 92.5836 38.1742L93.5158 39.9436C96.1564 38.5524 98.2173 36.5954 99.6749 34.0803L97.9445 33.0775ZM92.5836 38.1742C90.2732 39.3915 87.5193 40.0189 84.2897 40.0189V42.0189C87.7801 42.0189 90.8662 41.3397 93.5158 39.9436L92.5836 38.1742ZM84.2897 35.8589C87.3439 35.8589 89.847 34.9672 91.6541 33.0683L90.2053 31.6895C88.8657 33.0972 86.9421 33.8589 84.2897 33.8589V35.8589ZM91.6483 33.0743C93.4793 31.1822 94.3297 28.5686 94.3297 25.3789H92.3297C92.3297 28.2158 91.58 30.2689 90.2111 31.6835L91.6483 33.0743ZM94.3297 25.3789C94.3297 22.1892 93.4793 19.5756 91.6483 17.6835L90.2111 19.0743C91.58 20.4889 92.3297 22.542 92.3297 25.3789H94.3297ZM91.6541 17.6895C89.847 15.7906 87.3439 14.8989 84.2897 14.8989V16.8989C86.9421 16.8989 88.8657 17.6606 90.2053 19.0683L91.6541 17.6895ZM84.2897 14.8989C81.2347 14.8989 78.7227 15.7908 76.8911 17.6835L78.3283 19.0743C79.6966 17.6604 81.638 16.8989 84.2897 16.8989V14.8989ZM76.8911 17.6835C75.06 19.5756 74.2097 22.1892 74.2097 25.3789H76.2097C76.2097 22.542 76.9593 20.4889 78.3283 19.0743L76.8911 17.6835ZM74.2097 25.3789C74.2097 28.5686 75.06 31.1822 76.8911 33.0743L78.3283 31.6835C76.9593 30.2689 76.2097 28.2158 76.2097 25.3789H74.2097ZM76.8911 33.0743C78.7227 34.967 81.2347 35.8589 84.2897 35.8589V33.8589C81.638 33.8589 79.6966 33.0974 78.3283 31.6835L76.8911 33.0743ZM104.049 21.0589L103.052 20.9901L102.978 22.0589H104.049V21.0589ZM106.329 15.0589L107.107 15.6881L107.111 15.6821L106.329 15.0589ZM111.729 11.1389L112.105 12.0659L112.11 12.0636L111.729 11.1389ZM126.529 10.9789L126.152 11.9048L126.152 11.9048L126.529 10.9789ZM131.289 14.4589L130.496 15.0679L130.496 15.0679L131.289 14.4589ZM131.809 23.8589L132.657 24.3889L132.662 24.3811L131.809 23.8589ZM128.009 27.6989L128.603 28.5033L128.603 28.5033L128.009 27.6989ZM121.169 31.7789L120.715 30.8878L120.704 30.8936L121.169 31.7789ZM112.489 36.3389L111.51 36.5389L111.776 37.8434L112.954 37.2242L112.489 36.3389ZM112.089 34.3789V33.3789H110.865L111.11 34.5789L112.089 34.3789ZM133.849 34.3789H134.849V33.3789H133.849V34.3789ZM133.849 40.3789V41.3789H134.849V40.3789H133.849ZM104.569 40.3789H103.569V41.3789H104.569V40.3789ZM104.569 35.0989L104.071 34.2318L103.569 34.5201V35.0989H104.569ZM117.449 27.6989L116.953 26.8307L116.951 26.8318L117.449 27.6989ZM122.249 24.6989L122.834 25.5101L122.838 25.5076L122.249 24.6989ZM124.729 22.3389L123.897 21.7842L123.897 21.7842L124.729 22.3389ZM124.729 17.7389L123.902 18.3012L123.91 18.3123L123.918 18.3232L124.729 17.7389ZM122.649 16.1789L123.021 15.2504L123.021 15.2504L122.649 16.1789ZM114.969 16.3789L115.371 17.2945L115.381 17.2905L115.39 17.2862L114.969 16.3789ZM112.529 18.3389L113.37 18.881L113.37 18.881L112.529 18.3389ZM111.569 21.0589V22.0589H112.467L112.564 21.1664L111.569 21.0589ZM105.047 21.1277C105.194 18.9963 105.886 17.1961 107.107 15.6881L105.552 14.4297C104.053 16.2817 103.225 18.4815 103.052 20.9901L105.047 21.1277ZM107.111 15.6821C108.353 14.1241 110.007 12.9151 112.105 12.0659L111.354 10.212C108.972 11.1761 107.026 12.5804 105.547 14.4357L107.111 15.6821ZM112.11 12.0636C114.238 11.1874 116.666 10.7389 119.409 10.7389V8.7389C116.447 8.7389 113.754 9.2237 111.349 10.2142L112.11 12.0636ZM119.409 10.7389C122.03 10.7389 124.27 11.1374 126.152 11.9048L126.907 10.053C124.735 9.16709 122.228 8.7389 119.409 8.7389V10.7389ZM126.152 11.9048C128.041 12.6756 129.474 13.7366 130.496 15.0679L132.083 13.8499C130.811 12.1945 129.071 10.9356 126.907 10.053L126.152 11.9048ZM130.496 15.0679C131.504 16.3803 132.009 17.8844 132.009 19.6189H134.009C134.009 17.46 133.368 15.5242 132.083 13.8499L130.496 15.0679ZM132.009 19.6189C132.009 20.9531 131.661 22.1859 130.957 23.3368L132.662 24.3811C133.558 22.9185 134.009 21.3247 134.009 19.6189H132.009ZM130.961 23.3289C130.25 24.4671 129.087 25.6598 127.415 26.8945L128.603 28.5033C130.398 27.178 131.769 25.8107 132.657 24.3889L130.961 23.3289ZM127.415 26.8945C125.742 28.1305 123.514 29.4623 120.715 30.8879L121.623 32.6699C124.478 31.2155 126.81 29.8274 128.603 28.5033L127.415 26.8945ZM120.704 30.8936L112.024 35.4536L112.954 37.2242L121.634 32.6642L120.704 30.8936ZM113.469 36.1389L113.069 34.1789L111.11 34.5789L111.51 36.5389L113.469 36.1389ZM112.089 35.3789H133.849V33.3789H112.089V35.3789ZM132.849 34.3789V40.3789H134.849V34.3789H132.849ZM133.849 39.3789H104.569V41.3789H133.849V39.3789ZM105.569 40.3789V35.0989H103.569V40.3789H105.569ZM105.068 35.966L117.948 28.566L116.951 26.8318L104.071 34.2318L105.068 35.966ZM117.946 28.5671C120.012 27.3863 121.646 26.3664 122.834 25.5101L121.665 23.8877C120.559 24.6848 118.993 25.6649 116.953 26.8307L117.946 28.5671ZM122.838 25.5076C124.051 24.6253 124.986 23.7565 125.561 22.8936L123.897 21.7842C123.513 22.3613 122.795 23.0659 121.661 23.8902L122.838 25.5076ZM125.561 22.8936C126.146 22.0174 126.449 21.0525 126.449 20.0189H124.449C124.449 20.6386 124.273 21.2204 123.897 21.7842L125.561 22.8936ZM126.449 20.0189C126.449 18.9645 126.148 17.9984 125.541 17.1546L123.918 18.3232C124.27 18.8128 124.449 19.3666 124.449 20.0189H126.449ZM125.556 17.1766C124.966 16.3087 124.093 15.6794 123.021 15.2504L122.278 17.1074C123.072 17.4251 123.586 17.8358 123.902 18.3012L125.556 17.1766ZM123.021 15.2504C121.932 14.8149 120.622 14.6189 119.129 14.6189V16.6189C120.463 16.6189 121.5 16.7963 122.278 17.1074L123.021 15.2504ZM119.129 14.6189C117.358 14.6189 115.815 14.8848 114.549 15.4716L115.39 17.2862C116.31 16.8597 117.541 16.6189 119.129 16.6189V14.6189ZM114.567 15.4633C113.333 16.0051 112.35 16.773 111.689 17.7968L113.37 18.881C113.776 18.2515 114.419 17.7127 115.371 17.2945L114.567 15.4633ZM111.689 17.7968C111.071 18.7555 110.698 19.8113 110.575 20.9514L112.564 21.1664C112.654 20.3332 112.922 19.5756 113.37 18.881L111.689 17.7968ZM111.569 20.0589H104.049V22.0589H111.569V20.0589ZM137.539 19.9789L136.542 19.9087L136.466 20.9789H137.539V19.9789ZM139.539 14.8189L138.749 14.2059L138.749 14.2059L139.539 14.8189ZM144.659 11.1389L145.038 12.0643L145.044 12.062L144.659 11.1389ZM159.859 10.8189L159.52 11.7598L159.528 11.7625L159.535 11.7651L159.859 10.8189ZM164.579 13.7389L163.833 14.4053L163.841 14.4132L164.579 13.7389ZM165.019 21.8189L164.214 21.225L164.212 21.2284L165.019 21.8189ZM161.219 24.4589L161.565 25.3971L161.578 25.3923L161.219 24.4589ZM154.579 25.3789H153.579V26.3691L154.569 26.3789L154.579 25.3789ZM154.579 24.5789L154.527 23.5803L153.579 23.6296V24.5789H154.579ZM165.179 36.4989L165.95 37.1362L165.956 37.1289L165.179 36.4989ZM160.139 39.8189L160.483 40.7581L160.489 40.7557L160.139 39.8189ZM144.099 39.7389L143.737 40.6712L143.75 40.6761L144.099 39.7389ZM138.779 36.0989L137.997 36.722L138.003 36.7293L138.009 36.7365L138.779 36.0989ZM136.739 30.5789V29.5789H135.687L135.74 30.6295L136.739 30.5789ZM144.259 30.5789L145.249 30.435L145.124 29.5789H144.259V30.5789ZM146.499 33.9789L145.969 34.8269L145.979 34.8333L145.99 34.8395L146.499 33.9789ZM157.419 34.0989L157.919 34.9648L157.925 34.9613L157.419 34.0989ZM158.659 29.2589L157.874 29.8785L157.882 29.8889L157.891 29.8991L158.659 29.2589ZM156.619 28.0989L156.351 29.0624L156.351 29.0624L156.619 28.0989ZM147.419 27.6989H146.419V28.6989H147.419V27.6989ZM147.419 22.5389V21.5389H146.419V22.5389H147.419ZM157.299 21.6189L157.859 22.4472L157.868 22.4416L157.876 22.4359L157.299 21.6189ZM157.059 16.5389L156.551 17.4003L156.561 17.4058L157.059 16.5389ZM147.219 16.7389L146.699 15.8847L146.691 15.8898L147.219 16.7389ZM145.059 19.9789V20.9789H145.904L146.045 20.1463L145.059 19.9789ZM138.537 20.0492C138.656 18.3598 139.246 16.8274 140.329 15.4319L138.749 14.2059C137.432 15.9038 136.689 17.8114 136.542 19.9087L138.537 20.0492ZM140.329 15.4319C141.4 14.0512 142.951 12.9192 145.038 12.0643L144.28 10.2135C141.94 11.1719 140.078 12.4933 138.749 14.2059L140.329 15.4319ZM145.044 12.062C147.131 11.1921 149.687 10.7389 152.739 10.7389V8.7389C149.498 8.7389 146.667 9.21908 144.274 10.2158L145.044 12.062ZM152.739 10.7389C155.402 10.7389 157.656 11.0885 159.52 11.7598L160.198 9.87802C158.063 9.10936 155.569 8.7389 152.739 8.7389V10.7389ZM159.535 11.7651C161.443 12.4178 162.855 13.3103 163.833 14.4052L165.325 13.0726C164.063 11.6608 162.328 10.6067 160.183 9.87274L159.535 11.7651ZM163.841 14.4132C164.79 15.4533 165.259 16.6653 165.259 18.0989H167.259C167.259 16.1725 166.608 14.4779 165.318 13.0646L163.841 14.4132ZM165.259 18.0989C165.259 19.2398 164.917 20.2727 164.214 21.2251L165.824 22.4128C166.774 21.1251 167.259 19.678 167.259 18.0989H165.259ZM164.212 21.2284C163.56 22.1193 162.479 22.9031 160.86 23.5256L161.578 25.3923C163.426 24.6814 164.878 23.7052 165.826 22.4094L164.212 21.2284ZM160.873 23.5208C159.293 24.1041 157.211 24.4049 154.589 24.379L154.569 26.3789C157.333 26.4062 159.679 26.0937 161.565 25.397L160.873 23.5208ZM155.579 25.3789V24.5789H153.579V25.3789H155.579ZM154.631 25.5776C157.118 25.448 159.205 25.6327 160.914 26.103L161.445 24.1748C159.473 23.6318 157.16 23.4431 154.527 23.5803L154.631 25.5776ZM160.914 26.103C162.623 26.5738 163.85 27.2933 164.677 28.2089L166.161 26.8689C165.014 25.5979 163.415 24.7173 161.445 24.1748L160.914 26.103ZM164.677 28.2089C165.477 29.0956 165.899 30.2204 165.899 31.6589H167.899C167.899 29.7907 167.335 28.1689 166.161 26.8689L164.677 28.2089ZM165.899 31.6589C165.899 33.2419 165.405 34.633 164.403 35.8689L165.956 37.1289C167.246 35.5382 167.899 33.7026 167.899 31.6589H165.899ZM164.408 35.8616C163.403 37.0775 161.888 38.0981 159.789 38.8821L160.489 40.7557C162.816 39.8864 164.662 38.6937 165.95 37.1362L164.408 35.8616ZM159.795 38.8798C157.75 39.6281 155.207 40.0189 152.139 40.0189V42.0189C155.364 42.0189 158.155 41.6097 160.483 40.758L159.795 38.8798ZM152.139 40.0189C149.163 40.0189 146.605 39.6045 144.448 38.8017L143.75 40.6761C146.179 41.58 148.982 42.0189 152.139 42.0189V40.0189ZM144.461 38.8067C142.32 37.9755 140.7 36.8514 139.549 35.4613L138.009 36.7365C139.418 38.4397 141.345 39.7423 143.737 40.6711L144.461 38.8067ZM139.561 35.4758C138.445 34.0743 137.834 32.437 137.738 30.5283L135.74 30.6295C135.857 32.9341 136.607 34.9769 137.997 36.722L139.561 35.4758ZM136.739 31.5789H144.259V29.5789H136.739V31.5789ZM143.269 30.7228C143.526 32.4865 144.445 33.8745 145.969 34.8269L147.029 33.1309C145.993 32.4833 145.419 31.6047 145.249 30.435L143.269 30.7228ZM145.99 34.8395C147.518 35.744 149.606 36.1389 152.139 36.1389V34.1389C149.766 34.1389 148.093 33.7604 147.008 33.1183L145.99 34.8395ZM152.139 36.1389C154.53 36.1389 156.497 35.7867 157.919 34.9648L156.919 33.233C155.941 33.7978 154.388 34.1389 152.139 34.1389V36.1389ZM157.925 34.9613C159.417 34.0858 160.259 32.7787 160.259 31.0989H158.259C158.259 31.9791 157.875 32.672 156.913 33.2365L157.925 34.9613ZM160.259 31.0989C160.259 30.1659 160.005 29.3119 159.427 28.6187L157.891 29.8991C158.113 30.1659 158.259 30.5386 158.259 31.0989H160.259ZM159.444 28.6393C158.858 27.8975 157.947 27.4299 156.887 27.1354L156.351 29.0624C157.211 29.3012 157.66 29.607 157.874 29.8785L159.444 28.6393ZM156.887 27.1354C155.799 26.8333 154.362 26.6989 152.619 26.6989V28.6989C154.29 28.6989 155.519 28.8312 156.351 29.0624L156.887 27.1354ZM152.619 26.6989H147.419V28.6989H152.619V26.6989ZM148.419 27.6989V22.5389H146.419V27.6989H148.419ZM147.419 23.5389H152.619V21.5389H147.419V23.5389ZM152.619 23.5389C154.864 23.5389 156.688 23.2394 157.859 22.4472L156.739 20.7906C156.097 21.2251 154.801 21.5389 152.619 21.5389V23.5389ZM157.876 22.4359C159.018 21.6293 159.659 20.5117 159.659 19.1389H157.659C157.659 19.7928 157.393 20.3285 156.722 20.8019L157.876 22.4359ZM159.659 19.1389C159.659 17.6201 158.897 16.4424 157.558 15.672L156.561 17.4058C157.354 17.8621 157.659 18.4177 157.659 19.1389H159.659ZM157.567 15.6775C156.297 14.9286 154.509 14.6189 152.339 14.6189V16.6189C154.383 16.6189 155.741 16.9225 156.551 17.4003L157.567 15.6775ZM152.339 14.6189C150.058 14.6189 148.144 15.0052 146.699 15.8847L147.739 17.5931C148.748 16.9792 150.247 16.6189 152.339 16.6189V14.6189ZM146.691 15.8898C145.244 16.7902 144.36 18.1205 144.073 19.8115L146.045 20.1463C146.238 19.0106 146.794 18.1809 147.747 17.588L146.691 15.8898ZM145.059 18.9789H137.539V20.9789H145.059V18.9789Z" fill="#FFEB1C" mask="url(#path-1-outside-1_139_971)"/>
<mask id="path-3-outside-2_139_971" maskUnits="userSpaceOnUse" x="193" y="8.37891" width="364" height="34" fill="black">
<rect fill="white" x="193" y="8.37891" width="364" height="34"/>
<path d="M215.72 25.6589L216.36 24.1789C218.707 24.2322 220.627 24.5922 222.12 25.2589C223.64 25.9256 224.76 26.8456 225.48 28.0189C226.227 29.1656 226.6 30.4989 226.6 32.0189C226.6 33.6189 226.227 35.0589 225.48 36.3389C224.733 37.5922 223.613 38.5789 222.12 39.2989C220.653 40.0189 218.813 40.3789 216.6 40.3789H195L197.32 24.9789L195 10.3789H215.84C218.613 10.3789 220.76 11.0322 222.28 12.3389C223.827 13.6189 224.6 15.3922 224.6 17.6589C224.6 18.9122 224.307 20.1122 223.72 21.2589C223.133 22.4056 222.2 23.3789 220.92 24.1789C219.64 24.9522 217.907 25.4456 215.72 25.6589ZM202.44 38.5389L199.56 34.9789H214.8C216.107 34.9789 217.12 34.6722 217.84 34.0589C218.587 33.4189 218.96 32.5256 218.96 31.3789C218.96 30.2322 218.547 29.3256 217.72 28.6589C216.92 27.9656 215.72 27.6189 214.12 27.6189H201.64V22.3389H213.16C214.253 22.3389 215.16 22.0322 215.88 21.4189C216.6 20.7789 216.96 19.9122 216.96 18.8189C216.96 17.9389 216.653 17.2189 216.04 16.6589C215.427 16.0722 214.533 15.7789 213.36 15.7789H199.6L202.44 12.2189L204.56 24.9789L202.44 38.5389ZM238.441 10.3789V37.0189L235.041 33.6989H257.521V40.3789H230.881V10.3789H238.441ZM266.554 34.3389V28.2589H287.274V34.3389H266.554ZM281.994 10.3789L295.834 40.3789H287.794L275.914 13.5389H278.234L266.394 40.3789H258.354L272.194 10.3789H281.994ZM330.051 27.9789C329.758 30.5656 328.864 32.8456 327.371 34.8189C325.878 36.7656 323.904 38.2856 321.451 39.3789C318.998 40.4722 316.198 41.0189 313.051 41.0189C309.611 41.0189 306.584 40.3656 303.971 39.0589C301.384 37.7522 299.371 35.9256 297.931 33.5789C296.491 31.2322 295.771 28.4989 295.771 25.3789C295.771 22.2589 296.491 19.5256 297.931 17.1789C299.371 14.8322 301.384 13.0056 303.971 11.6989C306.584 10.3922 309.611 9.7389 313.051 9.7389C316.198 9.7389 318.998 10.2856 321.451 11.3789C323.904 12.4722 325.878 13.9922 327.371 15.9389C328.864 17.8856 329.758 20.1656 330.051 22.7789H322.451C322.184 21.4189 321.638 20.2589 320.811 19.2989C320.011 18.3389 318.944 17.6056 317.611 17.0989C316.304 16.5656 314.784 16.2989 313.051 16.2989C311.051 16.2989 309.331 16.6722 307.891 17.4189C306.451 18.1389 305.344 19.1789 304.571 20.5389C303.798 21.8989 303.411 23.5122 303.411 25.3789C303.411 27.2456 303.798 28.8589 304.571 30.2189C305.344 31.5789 306.451 32.6322 307.891 33.3789C309.331 34.0989 311.051 34.4589 313.051 34.4589C314.784 34.4589 316.304 34.2056 317.611 33.6989C318.944 33.1922 320.011 32.4589 320.811 31.4989C321.638 30.5389 322.184 29.3656 322.451 27.9789H330.051ZM334.279 40.3789V10.3789H341.799V34.3389L339.759 32.7789L357.519 10.3789H365.519L341.079 40.3789H334.279ZM348.639 25.8589L354.079 21.1789L365.919 40.3789H357.359L348.639 25.8589ZM381.748 22.8589H403.468V29.2989H381.748V22.8589ZM404.188 10.3789V16.8189H381.908L385.628 13.0989V40.3789H378.068V10.3789H404.188ZM413.816 23.5789H425.056C426.47 23.5789 427.59 23.2589 428.416 22.6189C429.243 21.9522 429.656 21.0322 429.656 19.8589C429.656 18.6856 429.243 17.7789 428.416 17.1389C427.59 16.4722 426.47 16.1389 425.056 16.1389H412.736L416.136 12.4189V40.3789H408.576V10.3789H426.056C428.296 10.3789 430.256 10.7789 431.936 11.5789C433.616 12.3789 434.923 13.4856 435.856 14.8989C436.79 16.3122 437.256 17.9656 437.256 19.8589C437.256 21.7256 436.79 23.3656 435.856 24.7789C434.923 26.1922 433.616 27.2989 431.936 28.0989C430.256 28.8722 428.296 29.2589 426.056 29.2589H413.816V23.5789ZM418.656 26.3389H427.176L438.216 40.3789H429.456L418.656 26.3389ZM442.17 10.3789H449.73V40.3789H442.17V10.3789ZM470.208 10.3789C473.728 10.3789 476.808 11.0056 479.448 12.2589C482.088 13.5122 484.142 15.2589 485.608 17.4989C487.102 19.7389 487.848 22.3656 487.848 25.3789C487.848 28.3656 487.102 30.9922 485.608 33.2589C484.142 35.4989 482.088 37.2456 479.448 38.4989C476.808 39.7522 473.728 40.3789 470.208 40.3789H455.568V10.3789H470.208ZM463.088 37.2989L459.408 33.6989H470.768C472.688 33.6989 474.355 33.3522 475.768 32.6589C477.182 31.9656 478.275 31.0056 479.048 29.7789C479.822 28.5256 480.208 27.0589 480.208 25.3789C480.208 23.6722 479.822 22.2056 479.048 20.9789C478.275 19.7522 477.182 18.7922 475.768 18.0989C474.355 17.4056 472.688 17.0589 470.768 17.0589H459.408L463.088 13.4589V37.2989ZM495.851 34.3389V28.2589H516.571V34.3389H495.851ZM511.291 10.3789L525.131 40.3789H517.091L505.211 13.5389H507.531L495.691 40.3789H487.651L501.491 10.3789H511.291ZM533.378 40.3789V25.8589H540.938V40.3789H533.378ZM519.298 10.3789H527.658L538.858 24.6189H535.378L546.578 10.3789H554.938L539.578 29.8989L534.698 29.9789L519.298 10.3789Z"/>
</mask>
<path d="M215.72 25.6589L214.802 25.262L214.129 26.8189L215.817 26.6542L215.72 25.6589ZM216.36 24.1789L216.383 23.1792L215.709 23.1639L215.442 23.782L216.36 24.1789ZM222.12 25.2589L221.712 26.1721L221.718 26.1747L222.12 25.2589ZM225.48 28.0189L224.628 28.5419L224.635 28.5533L224.642 28.5646L225.48 28.0189ZM225.48 36.3389L226.339 36.8507L226.344 36.8428L225.48 36.3389ZM222.12 39.2989L221.686 38.3981L221.679 38.4012L222.12 39.2989ZM195 40.3789L194.011 40.2299L193.838 41.3789H195V40.3789ZM197.32 24.9789L198.309 25.1279L198.332 24.9748L198.308 24.822L197.32 24.9789ZM195 10.3789V9.3789H193.829L194.012 10.5358L195 10.3789ZM222.28 12.3389L221.628 13.0972L221.635 13.1033L221.642 13.1093L222.28 12.3389ZM223.72 21.2589L222.83 20.8034L222.83 20.8034L223.72 21.2589ZM220.92 24.1789L221.437 25.0348L221.444 25.0309L221.45 25.0269L220.92 24.1789ZM202.44 38.5389L201.663 39.1679L203.08 40.9199L203.428 38.6934L202.44 38.5389ZM199.56 34.9789V33.9789H197.465L198.783 35.6079L199.56 34.9789ZM217.84 34.0589L218.488 34.8202L218.491 34.8182L217.84 34.0589ZM217.72 28.6589L217.065 29.4146L217.078 29.4262L217.092 29.4373L217.72 28.6589ZM201.64 27.6189H200.64V28.6189H201.64V27.6189ZM201.64 22.3389V21.3389H200.64V22.3389H201.64ZM215.88 21.4189L216.528 22.1801L216.536 22.1733L216.544 22.1663L215.88 21.4189ZM216.04 16.6589L215.349 17.3815L215.357 17.3896L215.366 17.3974L216.04 16.6589ZM199.6 15.7789L198.818 15.1553L197.523 16.7789H199.6V15.7789ZM202.44 12.2189L203.426 12.055L203.058 9.84009L201.658 11.5953L202.44 12.2189ZM204.56 24.9789L205.548 25.1334L205.573 24.9741L205.546 24.815L204.56 24.9789ZM216.638 26.0558L217.278 24.5758L215.442 23.782L214.802 25.262L216.638 26.0558ZM216.337 25.1786C218.604 25.2302 220.381 25.5777 221.712 26.172L222.528 24.3458C220.872 23.6068 218.809 23.2343 216.383 23.1792L216.337 25.1786ZM221.718 26.1747C223.091 26.7766 224.035 27.5755 224.628 28.5419L226.332 27.4959C225.485 26.1156 224.189 25.0745 222.522 24.3431L221.718 26.1747ZM224.642 28.5646C225.271 29.5312 225.6 30.6704 225.6 32.0189H227.6C227.6 30.3274 227.182 28.7999 226.318 27.4732L224.642 28.5646ZM225.6 32.0189C225.6 33.4564 225.267 34.7201 224.616 35.835L226.344 36.8428C227.187 35.3977 227.6 33.7814 227.6 32.0189H225.6ZM224.621 35.8271C223.988 36.8897 223.027 37.7513 221.686 38.3981L222.554 40.1997C224.199 39.4065 225.479 38.2948 226.339 36.8507L224.621 35.8271ZM221.679 38.4012C220.39 39.0344 218.712 39.3789 216.6 39.3789V41.3789C218.915 41.3789 220.917 41.0034 222.561 40.1966L221.679 38.4012ZM216.6 39.3789H195V41.3789H216.6V39.3789ZM195.989 40.5279L198.309 25.1279L196.331 24.8299L194.011 40.2299L195.989 40.5279ZM198.308 24.822L195.988 10.222L194.012 10.5358L196.332 25.1358L198.308 24.822ZM195 11.3789H215.84V9.3789H195V11.3789ZM215.84 11.3789C218.466 11.3789 220.349 11.9973 221.628 13.0972L222.932 11.5806C221.171 10.0672 218.761 9.3789 215.84 9.3789V11.3789ZM221.642 13.1093C222.928 14.1734 223.6 15.6469 223.6 17.6589H225.6C225.6 15.1375 224.725 13.0644 222.918 11.5685L221.642 13.1093ZM223.6 17.6589C223.6 18.7494 223.346 19.7937 222.83 20.8034L224.61 21.7144C225.267 20.4308 225.6 19.0751 225.6 17.6589H223.6ZM222.83 20.8034C222.339 21.7632 221.543 22.6101 220.39 23.3309L221.45 25.0269C222.857 24.1477 223.928 23.0479 224.61 21.7144L222.83 20.8034ZM220.403 23.323C219.296 23.9915 217.725 24.4585 215.623 24.6636L215.817 26.6542C218.088 26.4326 219.984 25.913 221.437 25.0348L220.403 23.323ZM203.217 37.91L200.337 34.35L198.783 35.6079L201.663 39.1679L203.217 37.91ZM199.56 35.9789H214.8V33.9789H199.56V35.9789ZM214.8 35.9789C216.254 35.9789 217.529 35.6375 218.488 34.8201L217.192 33.2977C216.711 33.707 215.959 33.9789 214.8 33.9789V35.9789ZM218.491 34.8182C219.497 33.9558 219.96 32.7638 219.96 31.3789H217.96C217.96 32.2873 217.676 32.882 217.189 33.2996L218.491 34.8182ZM219.96 31.3789C219.96 29.9574 219.431 28.7537 218.348 27.8805L217.092 29.4373C217.663 29.8975 217.96 30.507 217.96 31.3789H219.96ZM218.375 27.9032C217.32 26.9889 215.842 26.6189 214.12 26.6189V28.6189C215.598 28.6189 216.52 28.9422 217.065 29.4146L218.375 27.9032ZM214.12 26.6189H201.64V28.6189H214.12V26.6189ZM202.64 27.6189V22.3389H200.64V27.6189H202.64ZM201.64 23.3389H213.16V21.3389H201.64V23.3389ZM213.16 23.3389C214.452 23.3389 215.6 22.9712 216.528 22.1801L215.232 20.6577C214.72 21.0932 214.055 21.3389 213.16 21.3389V23.3389ZM216.544 22.1663C217.508 21.3099 217.96 20.1551 217.96 18.8189H215.96C215.96 19.6694 215.692 20.2479 215.216 20.6715L216.544 22.1663ZM217.96 18.8189C217.96 17.6768 217.549 16.6822 216.714 15.9204L215.366 17.3974C215.758 17.7556 215.96 18.201 215.96 18.8189H217.96ZM216.731 15.9363C215.87 15.1129 214.691 14.7789 213.36 14.7789V16.7789C214.376 16.7789 214.983 17.0316 215.349 17.3815L216.731 15.9363ZM213.36 14.7789H199.6V16.7789H213.36V14.7789ZM200.382 16.4025L203.222 12.8425L201.658 11.5953L198.818 15.1553L200.382 16.4025ZM201.454 12.3828L203.574 25.1428L205.546 24.815L203.426 12.055L201.454 12.3828ZM203.572 24.8244L201.452 38.3844L203.428 38.6934L205.548 25.1334L203.572 24.8244ZM238.441 10.3789H239.441V9.3789H238.441V10.3789ZM238.441 37.0189L237.742 37.7344L239.441 39.3931V37.0189H238.441ZM235.041 33.6989V32.6989H232.585L234.342 34.4144L235.041 33.6989ZM257.521 33.6989H258.521V32.6989H257.521V33.6989ZM257.521 40.3789V41.3789H258.521V40.3789H257.521ZM230.881 40.3789H229.881V41.3789H230.881V40.3789ZM230.881 10.3789V9.3789H229.881V10.3789H230.881ZM237.441 10.3789V37.0189H239.441V10.3789H237.441ZM239.14 36.3034L235.74 32.9834L234.342 34.4144L237.742 37.7344L239.14 36.3034ZM235.041 34.6989H257.521V32.6989H235.041V34.6989ZM256.521 33.6989V40.3789H258.521V33.6989H256.521ZM257.521 39.3789H230.881V41.3789H257.521V39.3789ZM231.881 40.3789V10.3789H229.881V40.3789H231.881ZM230.881 11.3789H238.441V9.3789H230.881V11.3789ZM266.554 34.3389H265.554V35.3389H266.554V34.3389ZM266.554 28.2589V27.2589H265.554V28.2589H266.554ZM287.274 28.2589H288.274V27.2589H287.274V28.2589ZM287.274 34.3389V35.3389H288.274V34.3389H287.274ZM281.994 10.3789L282.902 9.96L282.634 9.3789H281.994V10.3789ZM295.834 40.3789V41.3789H297.397L296.742 39.96L295.834 40.3789ZM287.794 40.3789L286.88 40.7837L287.143 41.3789H287.794V40.3789ZM275.914 13.5389V12.5389H274.378L275 13.9437L275.914 13.5389ZM278.234 13.5389L279.149 13.9425L279.768 12.5389H278.234V13.5389ZM266.394 40.3789V41.3789H267.046L267.309 40.7825L266.394 40.3789ZM258.354 40.3789L257.446 39.96L256.792 41.3789H258.354V40.3789ZM272.194 10.3789V9.3789H271.554L271.286 9.96L272.194 10.3789ZM267.554 34.3389V28.2589H265.554V34.3389H267.554ZM266.554 29.2589H287.274V27.2589H266.554V29.2589ZM286.274 28.2589V34.3389H288.274V28.2589H286.274ZM287.274 33.3389H266.554V35.3389H287.274V33.3389ZM281.086 10.7978L294.926 40.7978L296.742 39.96L282.902 9.96L281.086 10.7978ZM295.834 39.3789H287.794V41.3789H295.834V39.3789ZM288.709 39.9742L276.829 13.1342L275 13.9437L286.88 40.7837L288.709 39.9742ZM275.914 14.5389H278.234V12.5389H275.914V14.5389ZM277.319 13.1353L265.479 39.9753L267.309 40.7825L279.149 13.9425L277.319 13.1353ZM266.394 39.3789H258.354V41.3789H266.394V39.3789ZM259.262 40.7978L273.102 10.7978L271.286 9.96L257.446 39.96L259.262 40.7978ZM272.194 11.3789H281.994V9.3789H272.194V11.3789ZM330.051 27.9789L331.045 28.0916L331.171 26.9789H330.051V27.9789ZM327.371 34.8189L328.164 35.4276L328.168 35.4223L327.371 34.8189ZM321.451 39.3789L321.044 38.4655L321.044 38.4655L321.451 39.3789ZM303.971 39.0589L303.52 39.9515L303.524 39.9533L303.971 39.0589ZM297.931 33.5789L297.079 34.1019L297.079 34.1019L297.931 33.5789ZM297.931 17.1789L297.079 16.6559L297.079 16.6559L297.931 17.1789ZM303.971 11.6989L303.524 10.8045L303.52 10.8063L303.971 11.6989ZM327.371 15.9389L326.578 16.5476L326.578 16.5476L327.371 15.9389ZM330.051 22.7789V23.7789H331.169L331.045 22.6674L330.051 22.7789ZM322.451 22.7789L321.47 22.9713L321.628 23.7789H322.451V22.7789ZM320.811 19.2989L320.043 19.9391L320.048 19.9453L320.053 19.9514L320.811 19.2989ZM317.611 17.0989L317.233 18.0248L317.244 18.0294L317.256 18.0337L317.611 17.0989ZM307.891 17.4189L308.338 18.3133L308.345 18.31L308.351 18.3067L307.891 17.4189ZM304.571 20.5389L305.44 21.0332L305.44 21.0332L304.571 20.5389ZM304.571 30.2189L303.702 30.7132L303.702 30.7132L304.571 30.2189ZM307.891 33.3789L307.431 34.2667L307.437 34.27L307.444 34.2733L307.891 33.3789ZM317.611 33.6989L317.256 32.7641L317.249 32.7665L317.611 33.6989ZM320.811 31.4989L320.053 30.8464L320.048 30.8525L320.043 30.8587L320.811 31.4989ZM322.451 27.9789V26.9789H321.625L321.469 27.7901L322.451 27.9789ZM329.057 27.8662C328.783 30.2843 327.953 32.3927 326.574 34.2155L328.168 35.4223C329.776 33.2984 330.732 30.8468 331.045 28.0916L329.057 27.8662ZM326.578 34.2102C325.195 36.0125 323.36 37.4334 321.044 38.4655L321.858 40.2923C324.449 39.1377 326.56 37.5187 328.164 35.4276L326.578 34.2102ZM321.044 38.4655C318.739 39.4928 316.081 40.0189 313.051 40.0189V42.0189C316.314 42.0189 319.256 41.4517 321.858 40.2923L321.044 38.4655ZM313.051 40.0189C309.739 40.0189 306.87 39.3904 304.418 38.1645L303.524 39.9533C306.299 41.3407 309.483 42.0189 313.051 42.0189V40.0189ZM304.422 38.1663C301.992 36.9387 300.121 35.2361 298.783 33.0559L297.079 34.1019C298.621 36.6151 300.777 38.5658 303.52 39.9515L304.422 38.1663ZM298.783 33.0559C297.452 30.8868 296.771 28.3395 296.771 25.3789H294.771C294.771 28.6583 295.53 31.5777 297.079 34.1019L298.783 33.0559ZM296.771 25.3789C296.771 22.4183 297.452 19.8711 298.783 17.7019L297.079 16.6559C295.53 19.1801 294.771 22.0995 294.771 25.3789H296.771ZM298.783 17.7019C300.121 15.5217 301.992 13.8192 304.422 12.5915L303.52 10.8063C300.777 12.192 298.621 14.1427 297.079 16.6559L298.783 17.7019ZM304.418 12.5933C306.87 11.3674 309.739 10.7389 313.051 10.7389V8.7389C309.483 8.7389 306.299 9.41708 303.524 10.8045L304.418 12.5933ZM313.051 10.7389C316.081 10.7389 318.739 11.265 321.044 12.2923L321.858 10.4655C319.256 9.30612 316.314 8.7389 313.051 8.7389V10.7389ZM321.044 12.2923C323.36 13.3244 325.195 14.7453 326.578 16.5476L328.164 15.3302C326.56 13.2392 324.449 11.6201 321.858 10.4655L321.044 12.2923ZM326.578 16.5476C327.952 18.3394 328.783 20.4445 329.057 22.8904L331.045 22.6674C330.733 19.8867 329.776 17.4317 328.164 15.3302L326.578 16.5476ZM330.051 21.7789H322.451V23.7789H330.051V21.7789ZM323.432 22.5865C323.135 21.0728 322.519 19.7499 321.569 18.6464L320.053 19.9514C320.756 20.7679 321.233 21.7651 321.47 22.9713L323.432 22.5865ZM321.579 18.6587C320.654 17.5489 319.437 16.7231 317.966 16.1641L317.256 18.0337C318.451 18.488 319.368 19.1289 320.043 19.9391L321.579 18.6587ZM317.989 16.1731C316.538 15.581 314.885 15.2989 313.051 15.2989V17.2989C314.683 17.2989 316.07 17.5502 317.233 18.0248L317.989 16.1731ZM313.051 15.2989C310.927 15.2989 309.042 15.6955 307.431 16.5312L308.351 18.3067C309.62 17.649 311.174 17.2989 313.051 17.2989V15.2989ZM307.444 16.5245C305.832 17.3304 304.576 18.5071 303.702 20.0446L305.44 21.0332C306.113 19.8507 307.07 18.9475 308.338 18.3133L307.444 16.5245ZM303.702 20.0446C302.827 21.5819 302.411 23.3725 302.411 25.3789H304.411C304.411 23.652 304.768 22.2159 305.44 21.0332L303.702 20.0446ZM302.411 25.3789C302.411 27.3854 302.827 29.1759 303.702 30.7132L305.44 29.7246C304.768 28.5419 304.411 27.1058 304.411 25.3789H302.411ZM303.702 30.7132C304.574 32.2475 305.826 33.4345 307.431 34.2667L308.351 32.4912C307.076 31.8299 306.114 30.9103 305.44 29.7246L303.702 30.7132ZM307.444 34.2733C309.052 35.0775 310.933 35.4589 313.051 35.4589V33.4589C311.169 33.4589 309.61 33.1203 308.338 32.4845L307.444 34.2733ZM313.051 35.4589C314.88 35.4589 316.527 35.1918 317.972 34.6313L317.249 32.7665C316.082 33.2193 314.689 33.4589 313.051 33.4589V35.4589ZM317.966 34.6337C319.437 34.0747 320.654 33.2489 321.579 32.1391L320.043 30.8587C319.368 31.6689 318.451 32.3098 317.256 32.7641L317.966 34.6337ZM321.569 32.1514C322.522 31.0444 323.137 29.7058 323.433 28.1678L321.469 27.7901C321.231 29.0253 320.753 30.0334 320.053 30.8464L321.569 32.1514ZM322.451 28.9789H330.051V26.9789H322.451V28.9789ZM334.279 40.3789H333.279V41.3789H334.279V40.3789ZM334.279 10.3789V9.3789H333.279V10.3789H334.279ZM341.799 10.3789H342.799V9.3789H341.799V10.3789ZM341.799 34.3389L341.192 35.1333L342.799 36.3625V34.3389H341.799ZM339.759 32.7789L338.976 32.1576L338.344 32.9551L339.152 33.5733L339.759 32.7789ZM357.519 10.3789V9.3789H357.036L356.736 9.75763L357.519 10.3789ZM365.519 10.3789L366.295 11.0105L367.624 9.3789H365.519V10.3789ZM341.079 40.3789V41.3789H341.555L341.855 41.0105L341.079 40.3789ZM348.639 25.8589L347.987 25.1008L347.348 25.6508L347.782 26.3737L348.639 25.8589ZM354.079 21.1789L354.931 20.654L354.315 19.6566L353.427 20.4208L354.079 21.1789ZM365.919 40.3789V41.3789H367.711L366.771 39.854L365.919 40.3789ZM357.359 40.3789L356.502 40.8937L356.793 41.3789H357.359V40.3789ZM335.279 40.3789V10.3789H333.279V40.3789H335.279ZM334.279 11.3789H341.799V9.3789H334.279V11.3789ZM340.799 10.3789V34.3389H342.799V10.3789H340.799ZM342.407 33.5445L340.367 31.9845L339.152 33.5733L341.192 35.1333L342.407 33.5445ZM340.543 33.4002L358.303 11.0002L356.736 9.75763L338.976 32.1576L340.543 33.4002ZM357.519 11.3789H365.519V9.3789H357.519V11.3789ZM364.744 9.7473L340.304 39.7473L341.855 41.0105L366.295 11.0105L364.744 9.7473ZM341.079 39.3789H334.279V41.3789H341.079V39.3789ZM349.292 26.617L354.732 21.937L353.427 20.4208L347.987 25.1008L349.292 26.617ZM353.228 21.7038L365.068 40.9038L366.771 39.854L354.931 20.654L353.228 21.7038ZM365.919 39.3789H357.359V41.3789H365.919V39.3789ZM358.217 39.8641L349.497 25.3441L347.782 26.3737L356.502 40.8937L358.217 39.8641ZM381.748 22.8589V21.8589H380.748V22.8589H381.748ZM403.468 22.8589H404.468V21.8589H403.468V22.8589ZM403.468 29.2989V30.2989H404.468V29.2989H403.468ZM381.748 29.2989H380.748V30.2989H381.748V29.2989ZM404.188 10.3789H405.188V9.3789H404.188V10.3789ZM404.188 16.8189V17.8189H405.188V16.8189H404.188ZM381.908 16.8189L381.201 16.1118L379.494 17.8189H381.908V16.8189ZM385.628 13.0989H386.628V10.6847L384.921 12.3918L385.628 13.0989ZM385.628 40.3789V41.3789H386.628V40.3789H385.628ZM378.068 40.3789H377.068V41.3789H378.068V40.3789ZM378.068 10.3789V9.3789H377.068V10.3789H378.068ZM381.748 23.8589H403.468V21.8589H381.748V23.8589ZM402.468 22.8589V29.2989H404.468V22.8589H402.468ZM403.468 28.2989H381.748V30.2989H403.468V28.2989ZM382.748 29.2989V22.8589H380.748V29.2989H382.748ZM403.188 10.3789V16.8189H405.188V10.3789H403.188ZM404.188 15.8189H381.908V17.8189H404.188V15.8189ZM382.616 17.526L386.336 13.806L384.921 12.3918L381.201 16.1118L382.616 17.526ZM384.628 13.0989V40.3789H386.628V13.0989H384.628ZM385.628 39.3789H378.068V41.3789H385.628V39.3789ZM379.068 40.3789V10.3789H377.068V40.3789H379.068ZM378.068 11.3789H404.188V9.3789H378.068V11.3789ZM413.816 23.5789V22.5789H412.816V23.5789H413.816ZM428.416 22.6189L429.028 23.4096L429.036 23.4036L429.044 23.3973L428.416 22.6189ZM428.416 17.1389L427.788 17.9173L427.796 17.9236L427.804 17.9296L428.416 17.1389ZM412.736 16.1389L411.998 15.4643L410.468 17.1389H412.736V16.1389ZM416.136 12.4189H417.136V9.84253L415.398 11.7443L416.136 12.4189ZM416.136 40.3789V41.3789H417.136V40.3789H416.136ZM408.576 40.3789H407.576V41.3789H408.576V40.3789ZM408.576 10.3789V9.3789H407.576V10.3789H408.576ZM431.936 11.5789L431.506 12.4818L431.506 12.4818L431.936 11.5789ZM435.856 14.8989L436.691 14.3478L436.691 14.3478L435.856 14.8989ZM435.856 24.7789L436.691 25.33L436.691 25.33L435.856 24.7789ZM431.936 28.0989L432.354 29.0074L432.366 29.0018L431.936 28.0989ZM413.816 29.2589H412.816V30.2589H413.816V29.2589ZM418.656 26.3389V25.3389H416.625L417.864 26.9486L418.656 26.3389ZM427.176 26.3389L427.962 25.7208L427.662 25.3389H427.176V26.3389ZM438.216 40.3789V41.3789H440.275L439.002 39.7608L438.216 40.3789ZM429.456 40.3789L428.664 40.9886L428.964 41.3789H429.456V40.3789ZM413.816 24.5789H425.056V22.5789H413.816V24.5789ZM425.056 24.5789C426.614 24.5789 427.974 24.2261 429.028 23.4096L427.804 21.8282C427.205 22.2917 426.325 22.5789 425.056 22.5789V24.5789ZM429.044 23.3973C430.133 22.5193 430.656 21.2986 430.656 19.8589H428.656C428.656 20.7659 428.353 21.3852 427.788 21.8405L429.044 23.3973ZM430.656 19.8589C430.656 18.4194 430.132 17.2025 429.028 16.3482L427.804 17.9296C428.354 18.3553 428.656 18.9518 428.656 19.8589H430.656ZM429.044 16.3605C427.988 15.5092 426.622 15.1389 425.056 15.1389V17.1389C426.317 17.1389 427.191 17.4353 427.788 17.9173L429.044 16.3605ZM425.056 15.1389H412.736V17.1389H425.056V15.1389ZM413.474 16.8136L416.874 13.0935L415.398 11.7443L411.998 15.4643L413.474 16.8136ZM415.136 12.4189V40.3789H417.136V12.4189H415.136ZM416.136 39.3789H408.576V41.3789H416.136V39.3789ZM409.576 40.3789V10.3789H407.576V40.3789H409.576ZM408.576 11.3789H426.056V9.3789H408.576V11.3789ZM426.056 11.3789C428.177 11.3789 429.985 11.7574 431.506 12.4818L432.366 10.676C430.527 9.80038 428.415 9.3789 426.056 9.3789V11.3789ZM431.506 12.4818C433.039 13.2115 434.199 14.2033 435.022 15.45L436.691 14.3478C435.647 12.7679 434.194 11.5463 432.366 10.676L431.506 12.4818ZM435.022 15.45C435.835 16.6809 436.256 18.1376 436.256 19.8589H438.256C438.256 17.7936 437.744 15.9436 436.691 14.3478L435.022 15.45ZM436.256 19.8589C436.256 21.5504 435.836 22.9946 435.022 24.2278L436.691 25.33C437.743 23.7366 438.256 21.9007 438.256 19.8589H436.256ZM435.022 24.2278C434.199 25.4745 433.039 26.4663 431.506 27.196L432.366 29.0018C434.194 28.1315 435.647 26.9099 436.691 25.33L435.022 24.2278ZM431.518 27.1905C429.994 27.8921 428.182 28.2589 426.056 28.2589V30.2589C428.411 30.2589 430.519 29.8524 432.354 29.0073L431.518 27.1905ZM426.056 28.2589H413.816V30.2589H426.056V28.2589ZM414.816 29.2589V23.5789H412.816V29.2589H414.816ZM418.656 27.3389H427.176V25.3389H418.656V27.3389ZM426.39 26.957L437.43 40.997L439.002 39.7608L427.962 25.7208L426.39 26.957ZM438.216 39.3789H429.456V41.3789H438.216V39.3789ZM430.249 39.7692L419.449 25.7292L417.864 26.9486L428.664 40.9886L430.249 39.7692ZM442.17 10.3789V9.3789H441.17V10.3789H442.17ZM449.73 10.3789H450.73V9.3789H449.73V10.3789ZM449.73 40.3789V41.3789H450.73V40.3789H449.73ZM442.17 40.3789H441.17V41.3789H442.17V40.3789ZM442.17 11.3789H449.73V9.3789H442.17V11.3789ZM448.73 10.3789V40.3789H450.73V10.3789H448.73ZM449.73 39.3789H442.17V41.3789H449.73V39.3789ZM443.17 40.3789V10.3789H441.17V40.3789H443.17ZM479.448 12.2589L479.02 13.1623L479.02 13.1623L479.448 12.2589ZM485.608 17.4989L484.772 18.0467L484.776 18.0536L485.608 17.4989ZM485.608 33.2589L484.773 32.7087L484.772 32.7111L485.608 33.2589ZM479.448 38.4989L479.02 37.5955L479.02 37.5955L479.448 38.4989ZM455.568 40.3789H454.568V41.3789H455.568V40.3789ZM455.568 10.3789V9.3789H454.568V10.3789H455.568ZM463.088 37.2989L462.389 38.0137L464.088 39.6761V37.2989H463.088ZM459.408 33.6989V32.6989H456.956L458.709 34.4137L459.408 33.6989ZM475.768 32.6589L475.328 31.7611L475.328 31.7611L475.768 32.6589ZM479.048 29.7789L479.894 30.3122L479.899 30.304L479.048 29.7789ZM479.048 20.9789L478.203 21.5122L479.048 20.9789ZM475.768 18.0989L476.209 17.2011L476.209 17.2011L475.768 18.0989ZM459.408 17.0589L458.709 16.3441L456.956 18.0589H459.408V17.0589ZM463.088 13.4589H464.088V11.0817L462.389 12.7441L463.088 13.4589ZM470.208 11.3789C473.61 11.3789 476.538 11.9842 479.02 13.1623L479.877 11.3555C477.079 10.0269 473.847 9.3789 470.208 9.3789V11.3789ZM479.02 13.1623C481.509 14.3443 483.415 15.9744 484.772 18.0467L486.445 16.9511C484.869 14.5435 482.668 12.6802 479.877 11.3555L479.02 13.1623ZM484.776 18.0536C486.147 20.1101 486.848 22.5386 486.848 25.3789H488.848C488.848 22.1926 488.056 19.3677 486.44 16.9442L484.776 18.0536ZM486.848 25.3789C486.848 28.1904 486.148 30.6216 484.773 32.7087L486.444 33.8091C488.055 31.3628 488.848 28.5407 488.848 25.3789H486.848ZM484.772 32.7111C483.415 34.7835 481.509 36.4136 479.02 37.5955L479.877 39.4023C482.668 38.0776 484.869 36.2144 486.445 33.8067L484.772 32.7111ZM479.02 37.5955C476.538 38.7736 473.61 39.3789 470.208 39.3789V41.3789C473.847 41.3789 477.079 40.7309 479.877 39.4023L479.02 37.5955ZM470.208 39.3789H455.568V41.3789H470.208V39.3789ZM456.568 40.3789V10.3789H454.568V40.3789H456.568ZM455.568 11.3789H470.208V9.3789H455.568V11.3789ZM463.788 36.5841L460.108 32.9841L458.709 34.4137L462.389 38.0137L463.788 36.5841ZM459.408 34.6989H470.768V32.6989H459.408V34.6989ZM470.768 34.6989C472.808 34.6989 474.632 34.3304 476.209 33.5567L475.328 31.7611C474.079 32.374 472.569 32.6989 470.768 32.6989V34.6989ZM476.209 33.5567C477.774 32.789 479.014 31.7089 479.894 30.3122L478.203 29.2456C477.536 30.3022 476.59 31.1421 475.328 31.7611L476.209 33.5567ZM479.899 30.304C480.783 28.8716 481.208 27.2177 481.208 25.3789H479.208C479.208 26.9001 478.86 28.1796 478.197 29.2538L479.899 30.304ZM481.208 25.3789C481.208 23.5174 480.785 21.8584 479.894 20.4456L478.203 21.5122C478.859 22.5528 479.208 23.8271 479.208 25.3789H481.208ZM479.894 20.4456C479.014 19.0489 477.774 17.9688 476.209 17.2011L475.328 18.9967C476.59 19.6157 477.536 20.4556 478.203 21.5122L479.894 20.4456ZM476.209 17.2011C474.632 16.4274 472.808 16.0589 470.768 16.0589V18.0589C472.569 18.0589 474.079 18.3838 475.328 18.9967L476.209 17.2011ZM470.768 16.0589H459.408V18.0589H470.768V16.0589ZM460.108 17.7737L463.788 14.1737L462.389 12.7441L458.709 16.3441L460.108 17.7737ZM462.088 13.4589V37.2989H464.088V13.4589H462.088ZM495.851 34.3389H494.851V35.3389H495.851V34.3389ZM495.851 28.2589V27.2589H494.851V28.2589H495.851ZM516.571 28.2589H517.571V27.2589H516.571V28.2589ZM516.571 34.3389V35.3389H517.571V34.3389H516.571ZM511.291 10.3789L512.199 9.96L511.931 9.3789H511.291V10.3789ZM525.131 40.3789V41.3789H526.694L526.039 39.96L525.131 40.3789ZM517.091 40.3789L516.177 40.7837L516.44 41.3789H517.091V40.3789ZM505.211 13.5389V12.5389H503.675L504.297 13.9437L505.211 13.5389ZM507.531 13.5389L508.446 13.9425L509.065 12.5389H507.531V13.5389ZM495.691 40.3789V41.3789H496.343L496.606 40.7825L495.691 40.3789ZM487.651 40.3789L486.743 39.96L486.089 41.3789H487.651V40.3789ZM501.491 10.3789V9.3789H500.851L500.583 9.96L501.491 10.3789ZM496.851 34.3389V28.2589H494.851V34.3389H496.851ZM495.851 29.2589H516.571V27.2589H495.851V29.2589ZM515.571 28.2589V34.3389H517.571V28.2589H515.571ZM516.571 33.3389H495.851V35.3389H516.571V33.3389ZM510.383 10.7978L524.223 40.7978L526.039 39.96L512.199 9.96L510.383 10.7978ZM525.131 39.3789H517.091V41.3789H525.131V39.3789ZM518.006 39.9742L506.126 13.1342L504.297 13.9437L516.177 40.7837L518.006 39.9742ZM505.211 14.5389H507.531V12.5389H505.211V14.5389ZM506.616 13.1353L494.776 39.9753L496.606 40.7825L508.446 13.9425L506.616 13.1353ZM495.691 39.3789H487.651V41.3789H495.691V39.3789ZM488.559 40.7978L502.399 10.7978L500.583 9.96L486.743 39.96L488.559 40.7978ZM501.491 11.3789H511.291V9.3789H501.491V11.3789ZM533.378 40.3789H532.378V41.3789H533.378V40.3789ZM533.378 25.8589V24.8589H532.378V25.8589H533.378ZM540.938 25.8589H541.938V24.8589H540.938V25.8589ZM540.938 40.3789V41.3789H541.938V40.3789H540.938ZM519.298 10.3789V9.3789H517.24L518.511 10.9967L519.298 10.3789ZM527.658 10.3789L528.444 9.76069L528.143 9.3789H527.658V10.3789ZM538.858 24.6189V25.6189H540.916L539.644 24.0007L538.858 24.6189ZM535.378 24.6189L534.591 24.0007L533.319 25.6189H535.378V24.6189ZM546.578 10.3789V9.3789H546.092L545.791 9.76069L546.578 10.3789ZM554.938 10.3789L555.723 10.9973L556.997 9.3789H554.938V10.3789ZM539.578 29.8989L539.594 30.8988L540.069 30.891L540.363 30.5173L539.578 29.8989ZM534.698 29.9789L533.911 30.5967L534.218 30.9869L534.714 30.9788L534.698 29.9789ZM534.378 40.3789V25.8589H532.378V40.3789H534.378ZM533.378 26.8589H540.938V24.8589H533.378V26.8589ZM539.938 25.8589V40.3789H541.938V25.8589H539.938ZM540.938 39.3789H533.378V41.3789H540.938V39.3789ZM519.298 11.3789H527.658V9.3789H519.298V11.3789ZM526.871 10.9971L538.071 25.2371L539.644 24.0007L528.444 9.76069L526.871 10.9971ZM538.858 23.6189H535.378V25.6189H538.858V23.6189ZM536.164 25.2371L547.364 10.9971L545.791 9.76069L534.591 24.0007L536.164 25.2371ZM546.578 11.3789H554.938V9.3789H546.578V11.3789ZM554.152 9.76051L538.792 29.2805L540.363 30.5173L555.723 10.9973L554.152 9.76051ZM539.561 28.899L534.681 28.979L534.714 30.9788L539.594 30.8988L539.561 28.899ZM535.484 29.3611L520.084 9.76108L518.511 10.9967L533.911 30.5967L535.484 29.3611Z" fill="#FFEB1C" mask="url(#path-3-outside-2_139_971)"/>
<path d="M601.543 10.9096L607.686 28.6713M607.686 28.6713L607.242 46.0865M607.686 28.6713L588 42.1009M607.686 28.6713L626.853 29.8843M607.686 28.6713L618.343 1.37891M607.686 28.6713L634.032 42.8807M607.686 28.6713L597.251 47.2995M607.686 28.6713L588.962 12.1226M607.686 28.6713L625.669 15.8482M607.686 28.6713L591.478 27.1984M607.686 28.6713L618.343 49.3789" stroke="#8F8FFF" stroke-width="2.4"/>
</svg>
