<svg width="634" height="50" viewBox="0 0 634 50" fill="none" xmlns="http://www.w3.org/2000/svg">
<mask id="path-1-outside-1_139_960" maskUnits="userSpaceOnUse" x="32" y="8" width="135" height="34" fill="black">
<rect fill="white" x="32" y="8" width="135" height="34"/>
<path d="M33.44 20.68C33.6 18.36 34.36 16.36 35.72 14.68C37.08 12.9733 38.88 11.6667 41.12 10.76C43.3867 9.82667 45.9467 9.36 48.8 9.36C51.52 9.36 53.8933 9.77333 55.92 10.6C57.9467 11.4267 59.5333 12.5867 60.68 14.08C61.8267 15.5733 62.4 17.2933 62.4 19.24C62.4 20.76 62 22.1733 61.2 23.48C60.4 24.76 59.1333 26.04 57.4 27.32C55.6667 28.6 53.3867 29.96 50.56 31.4L41.88 35.96L41.48 34H63.24V40H33.96V34.72L46.84 27.32C48.8933 26.1467 50.4933 25.1467 51.64 24.32C52.8133 23.4667 53.64 22.68 54.12 21.96C54.6 21.24 54.84 20.4667 54.84 19.64C54.84 18.7867 54.6 18.0267 54.12 17.36C53.6667 16.6933 52.9733 16.1733 52.04 15.8C51.1067 15.4267 49.9333 15.24 48.52 15.24C46.84 15.24 45.4533 15.4933 44.36 16C43.2667 16.48 42.4533 17.1333 41.92 17.96C41.3867 18.7867 41.0667 19.6933 40.96 20.68H33.44ZM83.2897 40.64C79.903 40.64 76.9697 39.9867 74.4897 38.68C72.0097 37.3733 70.0897 35.56 68.7297 33.24C67.3697 30.8933 66.6897 28.1467 66.6897 25C66.6897 21.88 67.3697 19.1467 68.7297 16.8C70.0897 14.4533 72.0097 12.6267 74.4897 11.32C76.9697 10.0133 79.903 9.36 83.2897 9.36C86.6497 9.36 89.5697 10.0133 92.0497 11.32C94.5297 12.6267 96.4497 14.4533 97.8097 16.8C99.1697 19.12 99.8497 21.8533 99.8497 25C99.8497 28.12 99.1697 30.8533 97.8097 33.2C96.4497 35.5467 94.5297 37.3733 92.0497 38.68C89.5697 39.9867 86.6497 40.64 83.2897 40.64ZM83.2897 34.48C86.143 34.48 88.3564 33.6533 89.9297 32C91.5297 30.3467 92.3297 28.0133 92.3297 25C92.3297 21.9867 91.5297 19.6533 89.9297 18C88.3564 16.3467 86.143 15.52 83.2897 15.52C80.4364 15.52 78.2097 16.3467 76.6097 18C75.0097 19.6533 74.2097 21.9867 74.2097 25C74.2097 28.0133 75.0097 30.3467 76.6097 32C78.2097 33.6533 80.4364 34.48 83.2897 34.48ZM103.049 20.68C103.209 18.36 103.969 16.36 105.329 14.68C106.689 12.9733 108.489 11.6667 110.729 10.76C112.996 9.82667 115.556 9.36 118.409 9.36C121.129 9.36 123.503 9.77333 125.529 10.6C127.556 11.4267 129.143 12.5867 130.289 14.08C131.436 15.5733 132.009 17.2933 132.009 19.24C132.009 20.76 131.609 22.1733 130.809 23.48C130.009 24.76 128.743 26.04 127.009 27.32C125.276 28.6 122.996 29.96 120.169 31.4L111.489 35.96L111.089 34H132.849V40H103.569V34.72L116.449 27.32C118.503 26.1467 120.103 25.1467 121.249 24.32C122.423 23.4667 123.249 22.68 123.729 21.96C124.209 21.24 124.449 20.4667 124.449 19.64C124.449 18.7867 124.209 18.0267 123.729 17.36C123.276 16.6933 122.583 16.1733 121.649 15.8C120.716 15.4267 119.543 15.24 118.129 15.24C116.449 15.24 115.063 15.4933 113.969 16C112.876 16.48 112.063 17.1333 111.529 17.96C110.996 18.7867 110.676 19.6933 110.569 20.68H103.049ZM136.539 19.6C136.672 17.7067 137.339 15.9867 138.539 14.44C139.739 12.8933 141.446 11.6667 143.659 10.76C145.899 9.82667 148.592 9.36 151.739 9.36C154.486 9.36 156.859 9.72 158.859 10.44C160.886 11.1333 162.459 12.1067 163.579 13.36C164.699 14.5867 165.259 16.04 165.259 17.72C165.259 19.08 164.846 20.32 164.019 21.44C163.219 22.5333 161.952 23.4133 160.219 24.08C158.486 24.72 156.272 25.0267 153.579 25V24.2C156.139 24.0667 158.339 24.2533 160.179 24.76C162.019 25.2667 163.432 26.0667 164.419 27.16C165.406 28.2533 165.899 29.6267 165.899 31.28C165.899 33.0933 165.326 34.7067 164.179 36.12C163.032 37.5067 161.352 38.6133 159.139 39.44C156.952 40.24 154.286 40.64 151.139 40.64C148.072 40.64 145.392 40.2133 143.099 39.36C140.832 38.48 139.059 37.2667 137.779 35.72C136.526 34.1467 135.846 32.3067 135.739 30.2H143.259C143.472 31.6667 144.219 32.8 145.499 33.6C146.806 34.3733 148.686 34.76 151.139 34.76C153.459 34.76 155.219 34.4133 156.419 33.72C157.646 33 158.259 32 158.259 30.72C158.259 29.9733 158.059 29.36 157.659 28.88C157.259 28.3733 156.579 27.9867 155.619 27.72C154.659 27.4533 153.326 27.32 151.619 27.32H146.419V22.16H151.619C153.832 22.16 155.392 21.8533 156.299 21.24C157.206 20.6 157.659 19.7733 157.659 18.76C157.659 17.64 157.126 16.7733 156.059 16.16C155.019 15.5467 153.446 15.24 151.339 15.24C149.152 15.24 147.446 15.6133 146.219 16.36C145.019 17.1067 144.299 18.1867 144.059 19.6H136.539Z"/>
</mask>
<path d="M33.44 20.68L32.4424 20.6112L32.3687 21.68H33.44V20.68ZM35.72 14.68L36.4973 15.3092L36.5021 15.3032L35.72 14.68ZM41.12 10.76L41.4952 11.687L41.5008 11.6847L41.12 10.76ZM55.92 10.6L55.5423 11.5259L55.5423 11.5259L55.92 10.6ZM60.68 14.08L59.8868 14.689L59.8869 14.689L60.68 14.08ZM61.2 23.48L62.048 24.01L62.0529 24.0022L61.2 23.48ZM57.4 27.32L57.994 28.1244L57.994 28.1244L57.4 27.32ZM50.56 31.4L50.106 30.5089L50.0949 30.5147L50.56 31.4ZM41.88 35.96L40.9002 36.16L41.1664 37.4645L42.3451 36.8453L41.88 35.96ZM41.48 34V33H40.2553L40.5002 34.2L41.48 34ZM63.24 34H64.24V33H63.24V34ZM63.24 40V41H64.24V40H63.24ZM33.96 40H32.96V41H33.96V40ZM33.96 34.72L33.4618 33.8529L32.96 34.1412V34.72H33.96ZM46.84 27.32L46.3439 26.4518L46.3418 26.4529L46.84 27.32ZM51.64 24.32L52.2248 25.1312L52.2282 25.1287L51.64 24.32ZM54.12 21.96L53.288 21.4053L53.288 21.4053L54.12 21.96ZM54.12 17.36L53.2931 17.9223L53.3006 17.9334L53.3085 17.9443L54.12 17.36ZM52.04 15.8L52.4114 14.8715L52.4114 14.8715L52.04 15.8ZM44.36 16L44.762 16.9156L44.7713 16.9116L44.7805 16.9073L44.36 16ZM41.92 17.96L42.7603 18.5021L42.7603 18.5021L41.92 17.96ZM40.96 20.68V21.68H41.8577L41.9542 20.7875L40.96 20.68ZM34.4376 20.7488C34.5846 18.6174 35.2765 16.8172 36.4972 15.3092L34.9428 14.0508C33.4435 15.9028 32.6154 18.1026 32.4424 20.6112L34.4376 20.7488ZM36.5021 15.3032C37.7436 13.7451 39.3972 12.5361 41.4952 11.6869L40.7448 9.83305C38.3628 10.7972 36.4164 12.2015 34.9379 14.0568L36.5021 15.3032ZM41.5008 11.6847C43.6285 10.8085 46.0561 10.36 48.8 10.36V8.36C45.8372 8.36 43.1448 8.84479 40.7393 9.83532L41.5008 11.6847ZM48.8 10.36C51.4209 10.36 53.6608 10.7585 55.5423 11.5259L56.2977 9.67406C54.1259 8.78819 51.6191 8.36 48.8 8.36V10.36ZM55.5423 11.5259C57.4318 12.2967 58.8646 13.3577 59.8868 14.689L61.4732 13.471C60.2021 11.8156 58.4615 10.5567 56.2977 9.67406L55.5423 11.5259ZM59.8869 14.689C60.8946 16.0014 61.4 17.5055 61.4 19.24H63.4C63.4 17.0811 62.7588 15.1453 61.4732 13.471L59.8869 14.689ZM61.4 19.24C61.4 20.5742 61.0517 21.807 60.3471 22.9578L62.0529 24.0022C62.9483 22.5396 63.4 20.9458 63.4 19.24H61.4ZM60.352 22.95C59.6406 24.0882 58.4779 25.2809 56.806 26.5156L57.994 28.1244C59.7887 26.7991 61.1594 25.4318 62.048 24.01L60.352 22.95ZM56.806 26.5156C55.1322 27.7515 52.9043 29.0834 50.1061 30.509L51.0139 32.291C53.869 30.8366 56.2011 29.4485 57.994 28.1244L56.806 26.5156ZM50.0949 30.5147L41.4149 35.0747L42.3451 36.8453L51.0251 32.2853L50.0949 30.5147ZM42.8598 35.76L42.4598 33.8L40.5002 34.2L40.9002 36.16L42.8598 35.76ZM41.48 35H63.24V33H41.48V35ZM62.24 34V40H64.24V34H62.24ZM63.24 39H33.96V41H63.24V39ZM34.96 40V34.72H32.96V40H34.96ZM34.4582 35.5871L47.3382 28.1871L46.3418 26.4529L33.4618 33.8529L34.4582 35.5871ZM47.3361 28.1882C49.4027 27.0074 51.037 25.9875 52.2248 25.1312L51.0552 23.5088C49.9496 24.3058 48.384 25.286 46.3439 26.4518L47.3361 28.1882ZM52.2282 25.1287C53.4415 24.2463 54.3768 23.3776 54.9521 22.5147L53.288 21.4053C52.9032 21.9824 52.1852 22.687 51.0518 23.5113L52.2282 25.1287ZM54.9521 22.5147C55.5362 21.6385 55.84 20.6736 55.84 19.64H53.84C53.84 20.2597 53.6638 20.8415 53.288 21.4053L54.9521 22.5147ZM55.84 19.64C55.84 18.5856 55.539 17.6195 54.9315 16.7757L53.3085 17.9443C53.661 18.4339 53.84 18.9877 53.84 19.64H55.84ZM54.9469 16.7977C54.3567 15.9298 53.4838 15.3005 52.4114 14.8715L51.6686 16.7285C52.4628 17.0462 52.9766 17.4569 53.2931 17.9223L54.9469 16.7977ZM52.4114 14.8715C51.3224 14.4359 50.0127 14.24 48.52 14.24V16.24C49.8539 16.24 50.8909 16.4174 51.6686 16.7285L52.4114 14.8715ZM48.52 14.24C46.7484 14.24 45.2059 14.5059 43.9395 15.0927L44.7805 16.9073C45.7008 16.4808 46.9316 16.24 48.52 16.24V14.24ZM43.958 15.0844C42.7239 15.6262 41.7402 16.3941 41.0797 17.4179L42.7603 18.5021C43.1665 17.8726 43.8094 17.3338 44.762 16.9156L43.958 15.0844ZM41.0797 17.4179C40.4611 18.3766 40.0891 19.4324 39.9658 20.5725L41.9542 20.7875C42.0443 19.9543 42.3122 19.1967 42.7603 18.5021L41.0797 17.4179ZM40.96 19.68H33.44V21.68H40.96V19.68ZM74.4897 38.68L74.0235 39.5647L74.0235 39.5647L74.4897 38.68ZM68.7297 33.24L67.8645 33.7414L67.867 33.7457L68.7297 33.24ZM68.7297 16.8L67.8645 16.2986L67.8645 16.2986L68.7297 16.8ZM74.4897 11.32L74.9558 12.2047L74.9558 12.2047L74.4897 11.32ZM92.0497 11.32L91.5836 12.2047L91.5836 12.2047L92.0497 11.32ZM97.8097 16.8L96.9445 17.3014L96.947 17.3057L97.8097 16.8ZM97.8097 33.2L98.6749 33.7014L98.6749 33.7014L97.8097 33.2ZM92.0497 38.68L92.5158 39.5647L92.0497 38.68ZM89.9297 32L89.2111 31.3046L89.2053 31.3106L89.9297 32ZM89.9297 18L89.2052 18.6894L89.2111 18.6954L89.9297 18ZM76.6097 18L77.3283 18.6954L77.3283 18.6954L76.6097 18ZM76.6097 32L75.8911 32.6954L75.8911 32.6954L76.6097 32ZM83.2897 39.64C80.0319 39.64 77.2651 39.012 74.9558 37.7953L74.0235 39.5647C76.6742 40.9613 79.7741 41.64 83.2897 41.64V39.64ZM74.9558 37.7953C72.6334 36.5717 70.854 34.8865 69.5924 32.7343L67.867 33.7457C69.3254 36.2335 71.386 38.175 74.0235 39.5647L74.9558 37.7953ZM69.5949 32.7386C68.3365 30.5672 67.6897 27.9991 67.6897 25H65.6897C65.6897 28.2942 66.4029 31.2195 67.8645 33.7414L69.5949 32.7386ZM67.6897 25C67.6897 22.0292 68.3357 19.4741 69.5949 17.3014L67.8645 16.2986C66.4036 18.8193 65.6897 21.7308 65.6897 25H67.6897ZM69.5949 17.3014C70.8573 15.1232 72.6364 13.4268 74.9558 12.2047L74.0235 10.4353C71.383 11.8265 69.3221 13.7835 67.8645 16.2986L69.5949 17.3014ZM74.9558 12.2047C77.2651 10.988 80.0319 10.36 83.2897 10.36V8.36C79.7741 8.36 76.6742 9.03868 74.0235 10.4353L74.9558 12.2047ZM83.2897 10.36C86.5193 10.36 89.2732 10.9874 91.5836 12.2047L92.5158 10.4353C89.8662 9.03925 86.7801 8.36 83.2897 8.36V10.36ZM91.5836 12.2047C93.903 13.4268 95.6821 15.1232 96.9445 17.3014L98.6749 16.2986C97.2173 13.7835 95.1564 11.8265 92.5158 10.4353L91.5836 12.2047ZM96.947 17.3057C98.2028 19.448 98.8497 22.0006 98.8497 25H100.85C100.85 21.7061 100.137 18.792 98.6724 16.2943L96.947 17.3057ZM98.8497 25C98.8497 27.9708 98.2036 30.5259 96.9445 32.6986L98.6749 33.7014C100.136 31.1807 100.85 28.2692 100.85 25H98.8497ZM96.9445 32.6986C95.6821 34.8768 93.903 36.5732 91.5836 37.7953L92.5158 39.5647C95.1564 38.1735 97.2173 36.2165 98.6749 33.7014L96.9445 32.6986ZM91.5836 37.7953C89.2732 39.0126 86.5193 39.64 83.2897 39.64V41.64C86.7801 41.64 89.8662 40.9608 92.5158 39.5647L91.5836 37.7953ZM83.2897 35.48C86.3439 35.48 88.847 34.5883 90.6541 32.6894L89.2053 31.3106C87.8657 32.7183 85.9421 33.48 83.2897 33.48V35.48ZM90.6483 32.6954C92.4793 30.8033 93.3297 28.1897 93.3297 25H91.3297C91.3297 27.8369 90.58 29.89 89.2111 31.3046L90.6483 32.6954ZM93.3297 25C93.3297 21.8103 92.4793 19.1967 90.6483 17.3046L89.2111 18.6954C90.58 20.11 91.3297 22.1631 91.3297 25H93.3297ZM90.6541 17.3106C88.847 15.4117 86.3439 14.52 83.2897 14.52V16.52C85.9421 16.52 87.8657 17.2817 89.2053 18.6894L90.6541 17.3106ZM83.2897 14.52C80.2347 14.52 77.7227 15.4119 75.8911 17.3046L77.3283 18.6954C78.6966 17.2815 80.638 16.52 83.2897 16.52V14.52ZM75.8911 17.3046C74.06 19.1967 73.2097 21.8103 73.2097 25H75.2097C75.2097 22.1631 75.9593 20.11 77.3283 18.6954L75.8911 17.3046ZM73.2097 25C73.2097 28.1897 74.06 30.8033 75.8911 32.6954L77.3283 31.3046C75.9593 29.89 75.2097 27.8369 75.2097 25H73.2097ZM75.8911 32.6954C77.7227 34.5881 80.2347 35.48 83.2897 35.48V33.48C80.638 33.48 78.6966 32.7185 77.3283 31.3046L75.8911 32.6954ZM103.049 20.68L102.052 20.6112L101.978 21.68H103.049V20.68ZM105.329 14.68L106.107 15.3092L106.111 15.3032L105.329 14.68ZM110.729 10.76L111.105 11.687L111.11 11.6847L110.729 10.76ZM125.529 10.6L125.152 11.5259L125.152 11.5259L125.529 10.6ZM130.289 14.08L129.496 14.689L129.496 14.689L130.289 14.08ZM130.809 23.48L131.657 24.01L131.662 24.0022L130.809 23.48ZM127.009 27.32L127.603 28.1244L127.603 28.1244L127.009 27.32ZM120.169 31.4L119.715 30.5089L119.704 30.5147L120.169 31.4ZM111.489 35.96L110.51 36.16L110.776 37.4645L111.954 36.8453L111.489 35.96ZM111.089 34V33H109.865L110.11 34.2L111.089 34ZM132.849 34H133.849V33H132.849V34ZM132.849 40V41H133.849V40H132.849ZM103.569 40H102.569V41H103.569V40ZM103.569 34.72L103.071 33.8529L102.569 34.1412V34.72H103.569ZM116.449 27.32L115.953 26.4518L115.951 26.4529L116.449 27.32ZM121.249 24.32L121.834 25.1312L121.838 25.1287L121.249 24.32ZM123.729 21.96L122.897 21.4053L122.897 21.4053L123.729 21.96ZM123.729 17.36L122.902 17.9223L122.91 17.9334L122.918 17.9443L123.729 17.36ZM121.649 15.8L122.021 14.8715L122.021 14.8715L121.649 15.8ZM113.969 16L114.371 16.9156L114.381 16.9116L114.39 16.9073L113.969 16ZM111.529 17.96L112.37 18.5021L112.37 18.5021L111.529 17.96ZM110.569 20.68V21.68H111.467L111.564 20.7875L110.569 20.68ZM104.047 20.7488C104.194 18.6174 104.886 16.8172 106.107 15.3092L104.552 14.0508C103.053 15.9028 102.225 18.1026 102.052 20.6112L104.047 20.7488ZM106.111 15.3032C107.353 13.7451 109.007 12.5361 111.105 11.6869L110.354 9.83305C107.972 10.7972 106.026 12.2015 104.547 14.0568L106.111 15.3032ZM111.11 11.6847C113.238 10.8085 115.666 10.36 118.409 10.36V8.36C115.447 8.36 112.754 8.84479 110.349 9.83532L111.11 11.6847ZM118.409 10.36C121.03 10.36 123.27 10.7585 125.152 11.5259L125.907 9.67406C123.735 8.78819 121.228 8.36 118.409 8.36V10.36ZM125.152 11.5259C127.041 12.2967 128.474 13.3577 129.496 14.689L131.083 13.471C129.811 11.8156 128.071 10.5567 125.907 9.67406L125.152 11.5259ZM129.496 14.689C130.504 16.0014 131.009 17.5055 131.009 19.24H133.009C133.009 17.0811 132.368 15.1453 131.083 13.471L129.496 14.689ZM131.009 19.24C131.009 20.5742 130.661 21.807 129.957 22.9578L131.662 24.0022C132.558 22.5396 133.009 20.9458 133.009 19.24H131.009ZM129.961 22.95C129.25 24.0882 128.087 25.2809 126.415 26.5156L127.603 28.1244C129.398 26.7991 130.769 25.4318 131.657 24.01L129.961 22.95ZM126.415 26.5156C124.742 27.7515 122.514 29.0834 119.715 30.509L120.623 32.291C123.478 30.8366 125.81 29.4485 127.603 28.1244L126.415 26.5156ZM119.704 30.5147L111.024 35.0747L111.954 36.8453L120.634 32.2853L119.704 30.5147ZM112.469 35.76L112.069 33.8L110.11 34.2L110.51 36.16L112.469 35.76ZM111.089 35H132.849V33H111.089V35ZM131.849 34V40H133.849V34H131.849ZM132.849 39H103.569V41H132.849V39ZM104.569 40V34.72H102.569V40H104.569ZM104.068 35.5871L116.948 28.1871L115.951 26.4529L103.071 33.8529L104.068 35.5871ZM116.946 28.1882C119.012 27.0074 120.646 25.9875 121.834 25.1312L120.665 23.5088C119.559 24.3058 117.993 25.286 115.953 26.4518L116.946 28.1882ZM121.838 25.1287C123.051 24.2463 123.986 23.3776 124.561 22.5147L122.897 21.4053C122.513 21.9824 121.795 22.687 120.661 23.5113L121.838 25.1287ZM124.561 22.5147C125.146 21.6385 125.449 20.6736 125.449 19.64H123.449C123.449 20.2597 123.273 20.8415 122.897 21.4053L124.561 22.5147ZM125.449 19.64C125.449 18.5856 125.148 17.6195 124.541 16.7757L122.918 17.9443C123.27 18.4339 123.449 18.9877 123.449 19.64H125.449ZM124.556 16.7977C123.966 15.9298 123.093 15.3005 122.021 14.8715L121.278 16.7285C122.072 17.0462 122.586 17.4569 122.902 17.9223L124.556 16.7977ZM122.021 14.8715C120.932 14.4359 119.622 14.24 118.129 14.24V16.24C119.463 16.24 120.5 16.4174 121.278 16.7285L122.021 14.8715ZM118.129 14.24C116.358 14.24 114.815 14.5059 113.549 15.0927L114.39 16.9073C115.31 16.4808 116.541 16.24 118.129 16.24V14.24ZM113.567 15.0844C112.333 15.6262 111.35 16.3941 110.689 17.4179L112.37 18.5021C112.776 17.8726 113.419 17.3338 114.371 16.9156L113.567 15.0844ZM110.689 17.4179C110.071 18.3766 109.698 19.4324 109.575 20.5725L111.564 20.7875C111.654 19.9543 111.922 19.1967 112.37 18.5021L110.689 17.4179ZM110.569 19.68H103.049V21.68H110.569V19.68ZM136.539 19.6L135.542 19.5297L135.466 20.6H136.539V19.6ZM138.539 14.44L137.749 13.827L137.749 13.827L138.539 14.44ZM143.659 10.76L144.038 11.6854L144.044 11.6831L143.659 10.76ZM158.859 10.44L158.52 11.3809L158.528 11.3836L158.535 11.3862L158.859 10.44ZM163.579 13.36L162.833 14.0264L162.841 14.0343L163.579 13.36ZM164.019 21.44L163.214 20.8461L163.212 20.8495L164.019 21.44ZM160.219 24.08L160.565 25.0182L160.578 25.0133L160.219 24.08ZM153.579 25H152.579V25.9901L153.569 25.9999L153.579 25ZM153.579 24.2L153.527 23.2014L152.579 23.2507V24.2H153.579ZM164.179 36.12L164.95 36.7573L164.956 36.75L164.179 36.12ZM159.139 39.44L159.483 40.3791L159.489 40.3768L159.139 39.44ZM143.099 39.36L142.737 40.2923L142.75 40.2972L143.099 39.36ZM137.779 35.72L136.997 36.3431L137.003 36.3504L137.009 36.3576L137.779 35.72ZM135.739 30.2V29.2H134.687L134.74 30.2506L135.739 30.2ZM143.259 30.2L144.249 30.0561L144.124 29.2H143.259V30.2ZM145.499 33.6L144.969 34.448L144.979 34.4544L144.99 34.4606L145.499 33.6ZM156.419 33.72L156.919 34.5859L156.925 34.5824L156.419 33.72ZM157.659 28.88L156.874 29.4996L156.882 29.51L156.891 29.5202L157.659 28.88ZM155.619 27.72L155.351 28.6835L155.351 28.6835L155.619 27.72ZM146.419 27.32H145.419V28.32H146.419V27.32ZM146.419 22.16V21.16H145.419V22.16H146.419ZM156.299 21.24L156.859 22.0683L156.868 22.0627L156.876 22.057L156.299 21.24ZM156.059 16.16L155.551 17.0214L155.561 17.0269L156.059 16.16ZM146.219 16.36L145.699 15.5058L145.691 15.5109L146.219 16.36ZM144.059 19.6V20.6H144.904L145.045 19.7674L144.059 19.6ZM137.537 19.6702C137.656 17.9808 138.246 16.4485 139.329 15.053L137.749 13.827C136.432 15.5249 135.689 17.4325 135.542 19.5297L137.537 19.6702ZM139.329 15.053C140.4 13.6723 141.951 12.5403 144.038 11.6854L143.28 9.83463C140.94 10.793 139.078 12.1144 137.749 13.827L139.329 15.053ZM144.044 11.6831C146.131 10.8132 148.687 10.36 151.739 10.36V8.36C148.498 8.36 145.667 8.84017 143.274 9.83692L144.044 11.6831ZM151.739 10.36C154.402 10.36 156.656 10.7095 158.52 11.3809L159.198 9.49911C157.063 8.73045 154.569 8.36 151.739 8.36V10.36ZM158.535 11.3862C160.443 12.0389 161.855 12.9314 162.833 14.0263L164.325 12.6937C163.063 11.2819 161.328 10.2278 159.183 9.49384L158.535 11.3862ZM162.841 14.0343C163.79 15.0744 164.259 16.2864 164.259 17.72H166.259C166.259 15.7936 165.608 14.099 164.318 12.6857L162.841 14.0343ZM164.259 17.72C164.259 18.8609 163.917 19.8938 163.214 20.8461L164.824 22.0339C165.774 20.7462 166.259 19.2991 166.259 17.72H164.259ZM163.212 20.8495C162.56 21.7404 161.479 22.5242 159.86 23.1467L160.578 25.0133C162.426 24.3025 163.878 23.3263 164.826 22.0305L163.212 20.8495ZM159.873 23.1419C158.293 23.7252 156.211 24.026 153.589 24L153.569 25.9999C156.333 26.0273 158.679 25.7148 160.565 25.0181L159.873 23.1419ZM154.579 25V24.2H152.579V25H154.579ZM153.631 25.1986C156.118 25.0691 158.205 25.2538 159.914 25.7241L160.445 23.7959C158.473 23.2529 156.16 23.0642 153.527 23.2014L153.631 25.1986ZM159.914 25.7241C161.623 26.1949 162.85 26.9144 163.677 27.83L165.161 26.49C164.014 25.2189 162.415 24.3384 160.445 23.7959L159.914 25.7241ZM163.677 27.83C164.477 28.7167 164.899 29.8415 164.899 31.28H166.899C166.899 29.4118 166.335 27.79 165.161 26.49L163.677 27.83ZM164.899 31.28C164.899 32.863 164.405 34.2541 163.403 35.49L164.956 36.75C166.246 35.1593 166.899 33.3237 166.899 31.28H164.899ZM163.408 35.4827C162.403 36.6986 160.888 37.7192 158.789 38.5032L159.489 40.3768C161.816 39.5075 163.662 38.3147 164.95 36.7573L163.408 35.4827ZM158.795 38.5009C156.75 39.2492 154.207 39.64 151.139 39.64V41.64C154.364 41.64 157.155 41.2308 159.483 40.3791L158.795 38.5009ZM151.139 39.64C148.163 39.64 145.605 39.2256 143.448 38.4228L142.75 40.2972C145.179 41.2011 147.982 41.64 151.139 41.64V39.64ZM143.461 38.4278C141.32 37.5966 139.7 36.4725 138.549 35.0824L137.009 36.3576C138.418 38.0608 140.345 39.3634 142.737 40.2922L143.461 38.4278ZM138.561 35.0969C137.445 33.6954 136.834 32.0581 136.738 30.1494L134.74 30.2506C134.857 32.5552 135.607 34.598 136.997 36.3431L138.561 35.0969ZM135.739 31.2H143.259V29.2H135.739V31.2ZM142.269 30.3439C142.526 32.1076 143.445 33.4956 144.969 34.448L146.029 32.752C144.993 32.1044 144.419 31.2258 144.249 30.0561L142.269 30.3439ZM144.99 34.4606C146.518 35.3651 148.606 35.76 151.139 35.76V33.76C148.766 33.76 147.093 33.3815 146.008 32.7394L144.99 34.4606ZM151.139 35.76C153.53 35.76 155.497 35.4078 156.919 34.5859L155.919 32.8541C154.941 33.4189 153.388 33.76 151.139 33.76V35.76ZM156.925 34.5824C158.417 33.7069 159.259 32.3998 159.259 30.72H157.259C157.259 31.6002 156.875 32.2931 155.913 32.8576L156.925 34.5824ZM159.259 30.72C159.259 29.787 159.005 28.933 158.427 28.2398L156.891 29.5202C157.113 29.787 157.259 30.1597 157.259 30.72H159.259ZM158.444 28.2604C157.858 27.5186 156.947 27.051 155.887 26.7565L155.351 28.6835C156.211 28.9223 156.66 29.2281 156.874 29.4996L158.444 28.2604ZM155.887 26.7565C154.799 26.4544 153.362 26.32 151.619 26.32V28.32C153.29 28.32 154.519 28.4523 155.351 28.6835L155.887 26.7565ZM151.619 26.32H146.419V28.32H151.619V26.32ZM147.419 27.32V22.16H145.419V27.32H147.419ZM146.419 23.16H151.619V21.16H146.419V23.16ZM151.619 23.16C153.864 23.16 155.688 22.8605 156.859 22.0683L155.739 20.4117C155.097 20.8462 153.801 21.16 151.619 21.16V23.16ZM156.876 22.057C158.018 21.2504 158.659 20.1328 158.659 18.76H156.659C156.659 19.4139 156.393 19.9496 155.722 20.423L156.876 22.057ZM158.659 18.76C158.659 17.2412 157.897 16.0635 156.558 15.2931L155.561 17.0269C156.354 17.4832 156.659 18.0388 156.659 18.76H158.659ZM156.567 15.2986C155.297 14.5497 153.509 14.24 151.339 14.24V16.24C153.383 16.24 154.741 16.5436 155.551 17.0214L156.567 15.2986ZM151.339 14.24C149.058 14.24 147.144 14.6263 145.699 15.5058L146.739 17.2142C147.748 16.6003 149.247 16.24 151.339 16.24V14.24ZM145.691 15.5109C144.244 16.4113 143.36 17.7416 143.073 19.4326L145.045 19.7674C145.238 18.6317 145.794 17.802 146.747 17.2091L145.691 15.5109ZM144.059 18.6H136.539V20.6H144.059V18.6Z" fill="#8F8FFF" mask="url(#path-1-outside-1_139_960)"/>
<mask id="path-3-outside-2_139_960" maskUnits="userSpaceOnUse" x="192" y="8" width="364" height="34" fill="black">
<rect fill="white" x="192" y="8" width="364" height="34"/>
<path d="M214.72 25.28L215.36 23.8C217.707 23.8533 219.627 24.2133 221.12 24.88C222.64 25.5467 223.76 26.4667 224.48 27.64C225.227 28.7867 225.6 30.12 225.6 31.64C225.6 33.24 225.227 34.68 224.48 35.96C223.733 37.2133 222.613 38.2 221.12 38.92C219.653 39.64 217.813 40 215.6 40H194L196.32 24.6L194 10H214.84C217.613 10 219.76 10.6533 221.28 11.96C222.827 13.24 223.6 15.0133 223.6 17.28C223.6 18.5333 223.307 19.7333 222.72 20.88C222.133 22.0267 221.2 23 219.92 23.8C218.64 24.5733 216.907 25.0667 214.72 25.28ZM201.44 38.16L198.56 34.6H213.8C215.107 34.6 216.12 34.2933 216.84 33.68C217.587 33.04 217.96 32.1467 217.96 31C217.96 29.8533 217.547 28.9467 216.72 28.28C215.92 27.5867 214.72 27.24 213.12 27.24H200.64V21.96H212.16C213.253 21.96 214.16 21.6533 214.88 21.04C215.6 20.4 215.96 19.5333 215.96 18.44C215.96 17.56 215.653 16.84 215.04 16.28C214.427 15.6933 213.533 15.4 212.36 15.4H198.6L201.44 11.84L203.56 24.6L201.44 38.16ZM237.441 10V36.64L234.041 33.32H256.521V40H229.881V10H237.441ZM265.554 33.96V27.88H286.274V33.96H265.554ZM280.994 10L294.834 40H286.794L274.914 13.16H277.234L265.394 40H257.354L271.194 10H280.994ZM329.051 27.6C328.758 30.1867 327.864 32.4667 326.371 34.44C324.878 36.3867 322.904 37.9067 320.451 39C317.998 40.0933 315.198 40.64 312.051 40.64C308.611 40.64 305.584 39.9867 302.971 38.68C300.384 37.3733 298.371 35.5467 296.931 33.2C295.491 30.8533 294.771 28.12 294.771 25C294.771 21.88 295.491 19.1467 296.931 16.8C298.371 14.4533 300.384 12.6267 302.971 11.32C305.584 10.0133 308.611 9.36 312.051 9.36C315.198 9.36 317.998 9.90667 320.451 11C322.904 12.0933 324.878 13.6133 326.371 15.56C327.864 17.5067 328.758 19.7867 329.051 22.4H321.451C321.184 21.04 320.638 19.88 319.811 18.92C319.011 17.96 317.944 17.2267 316.611 16.72C315.304 16.1867 313.784 15.92 312.051 15.92C310.051 15.92 308.331 16.2933 306.891 17.04C305.451 17.76 304.344 18.8 303.571 20.16C302.798 21.52 302.411 23.1333 302.411 25C302.411 26.8667 302.798 28.48 303.571 29.84C304.344 31.2 305.451 32.2533 306.891 33C308.331 33.72 310.051 34.08 312.051 34.08C313.784 34.08 315.304 33.8267 316.611 33.32C317.944 32.8133 319.011 32.08 319.811 31.12C320.638 30.16 321.184 28.9867 321.451 27.6H329.051ZM333.279 40V10H340.799V33.96L338.759 32.4L356.519 10H364.519L340.079 40H333.279ZM347.639 25.48L353.079 20.8L364.919 40H356.359L347.639 25.48ZM380.748 22.48H402.468V28.92H380.748V22.48ZM403.188 10V16.44H380.908L384.628 12.72V40H377.068V10H403.188ZM412.816 23.2H424.056C425.47 23.2 426.59 22.88 427.416 22.24C428.243 21.5733 428.656 20.6533 428.656 19.48C428.656 18.3067 428.243 17.4 427.416 16.76C426.59 16.0933 425.47 15.76 424.056 15.76H411.736L415.136 12.04V40H407.576V10H425.056C427.296 10 429.256 10.4 430.936 11.2C432.616 12 433.923 13.1067 434.856 14.52C435.79 15.9333 436.256 17.5867 436.256 19.48C436.256 21.3467 435.79 22.9867 434.856 24.4C433.923 25.8133 432.616 26.92 430.936 27.72C429.256 28.4933 427.296 28.88 425.056 28.88H412.816V23.2ZM417.656 25.96H426.176L437.216 40H428.456L417.656 25.96ZM441.17 10H448.73V40H441.17V10ZM469.208 10C472.728 10 475.808 10.6267 478.448 11.88C481.088 13.1333 483.142 14.88 484.608 17.12C486.102 19.36 486.848 21.9867 486.848 25C486.848 27.9867 486.102 30.6133 484.608 32.88C483.142 35.12 481.088 36.8667 478.448 38.12C475.808 39.3733 472.728 40 469.208 40H454.568V10H469.208ZM462.088 36.92L458.408 33.32H469.768C471.688 33.32 473.355 32.9733 474.768 32.28C476.182 31.5867 477.275 30.6267 478.048 29.4C478.822 28.1467 479.208 26.68 479.208 25C479.208 23.2933 478.822 21.8267 478.048 20.6C477.275 19.3733 476.182 18.4133 474.768 17.72C473.355 17.0267 471.688 16.68 469.768 16.68H458.408L462.088 13.08V36.92ZM494.851 33.96V27.88H515.571V33.96H494.851ZM510.291 10L524.131 40H516.091L504.211 13.16H506.531L494.691 40H486.651L500.491 10H510.291ZM532.378 40V25.48H539.938V40H532.378ZM518.298 10H526.658L537.858 24.24H534.378L545.578 10H553.938L538.578 29.52L533.698 29.6L518.298 10Z"/>
</mask>
<path d="M214.72 25.28L213.802 24.8831L213.129 26.44L214.817 26.2753L214.72 25.28ZM215.36 23.8L215.383 22.8003L214.709 22.785L214.442 23.4031L215.36 23.8ZM221.12 24.88L220.712 25.7932L220.718 25.7958L221.12 24.88ZM224.48 27.64L223.628 28.163L223.635 28.1744L223.642 28.1857L224.48 27.64ZM224.48 35.96L225.339 36.4718L225.344 36.4639L224.48 35.96ZM221.12 38.92L220.686 38.0192L220.679 38.0223L221.12 38.92ZM194 40L193.011 39.851L192.838 41H194V40ZM196.32 24.6L197.309 24.749L197.332 24.5959L197.308 24.4431L196.32 24.6ZM194 10V9H192.829L193.012 10.1569L194 10ZM221.28 11.96L220.628 12.7183L220.635 12.7244L220.642 12.7304L221.28 11.96ZM222.72 20.88L221.83 20.4245L221.83 20.4245L222.72 20.88ZM219.92 23.8L220.437 24.6559L220.444 24.652L220.45 24.648L219.92 23.8ZM201.44 38.16L200.663 38.7889L202.08 40.541L202.428 38.3145L201.44 38.16ZM198.56 34.6V33.6H196.465L197.783 35.2289L198.56 34.6ZM216.84 33.68L217.488 34.4412L217.491 34.4393L216.84 33.68ZM216.72 28.28L216.065 29.0357L216.078 29.0473L216.092 29.0584L216.72 28.28ZM200.64 27.24H199.64V28.24H200.64V27.24ZM200.64 21.96V20.96H199.64V21.96H200.64ZM214.88 21.04L215.528 21.8012L215.536 21.7944L215.544 21.7874L214.88 21.04ZM215.04 16.28L214.349 17.0026L214.357 17.0107L214.366 17.0185L215.04 16.28ZM198.6 15.4L197.818 14.7764L196.523 16.4H198.6V15.4ZM201.44 11.84L202.426 11.6761L202.058 9.46118L200.658 11.2164L201.44 11.84ZM203.56 24.6L204.548 24.7545L204.573 24.5952L204.546 24.4361L203.56 24.6ZM215.638 25.6769L216.278 24.1969L214.442 23.4031L213.802 24.8831L215.638 25.6769ZM215.337 24.7997C217.604 24.8513 219.381 25.1988 220.712 25.7931L221.528 23.9669C219.872 23.2279 217.809 22.8554 215.383 22.8003L215.337 24.7997ZM220.718 25.7958C222.091 26.3977 223.035 27.1966 223.628 28.163L225.332 27.117C224.485 25.7367 223.189 24.6956 221.522 23.9642L220.718 25.7958ZM223.642 28.1857C224.271 29.1523 224.6 30.2915 224.6 31.64H226.6C226.6 29.9485 226.182 28.421 225.318 27.0943L223.642 28.1857ZM224.6 31.64C224.6 33.0775 224.267 34.3412 223.616 35.4561L225.344 36.4639C226.187 35.0188 226.6 33.4025 226.6 31.64H224.6ZM223.621 35.4482C222.988 36.5108 222.027 37.3724 220.686 38.0192L221.554 39.8208C223.199 39.0276 224.479 37.9159 225.339 36.4718L223.621 35.4482ZM220.679 38.0223C219.39 38.6555 217.712 39 215.6 39V41C217.915 41 219.917 40.6245 221.561 39.8177L220.679 38.0223ZM215.6 39H194V41H215.6V39ZM194.989 40.149L197.309 24.749L195.331 24.451L193.011 39.851L194.989 40.149ZM197.308 24.4431L194.988 9.84306L193.012 10.1569L195.332 24.7569L197.308 24.4431ZM194 11H214.84V9H194V11ZM214.84 11C217.466 11 219.349 11.6184 220.628 12.7183L221.932 11.2017C220.171 9.68831 217.761 9 214.84 9V11ZM220.642 12.7304C221.928 13.7945 222.6 15.268 222.6 17.28H224.6C224.6 14.7586 223.725 12.6855 221.918 11.1896L220.642 12.7304ZM222.6 17.28C222.6 18.3705 222.346 19.4148 221.83 20.4245L223.61 21.3355C224.267 20.0519 224.6 18.6962 224.6 17.28H222.6ZM221.83 20.4245C221.339 21.3843 220.543 22.2312 219.39 22.952L220.45 24.648C221.857 23.7688 222.928 22.669 223.61 21.3355L221.83 20.4245ZM219.403 22.9441C218.296 23.6126 216.725 24.0796 214.623 24.2847L214.817 26.2753C217.088 26.0537 218.984 25.534 220.437 24.6559L219.403 22.9441ZM202.217 37.5311L199.337 33.9711L197.783 35.2289L200.663 38.7889L202.217 37.5311ZM198.56 35.6H213.8V33.6H198.56V35.6ZM213.8 35.6C215.254 35.6 216.529 35.2586 217.488 34.4412L216.192 32.9188C215.711 33.3281 214.959 33.6 213.8 33.6V35.6ZM217.491 34.4393C218.497 33.5769 218.96 32.3849 218.96 31H216.96C216.96 31.9084 216.676 32.5031 216.189 32.9207L217.491 34.4393ZM218.96 31C218.96 29.5785 218.431 28.3748 217.348 27.5016L216.092 29.0584C216.663 29.5186 216.96 30.1281 216.96 31H218.96ZM217.375 27.5243C216.32 26.61 214.842 26.24 213.12 26.24V28.24C214.598 28.24 215.52 28.5633 216.065 29.0357L217.375 27.5243ZM213.12 26.24H200.64V28.24H213.12V26.24ZM201.64 27.24V21.96H199.64V27.24H201.64ZM200.64 22.96H212.16V20.96H200.64V22.96ZM212.16 22.96C213.452 22.96 214.6 22.5923 215.528 21.8012L214.232 20.2788C213.72 20.7143 213.055 20.96 212.16 20.96V22.96ZM215.544 21.7874C216.508 20.931 216.96 19.7762 216.96 18.44H214.96C214.96 19.2905 214.692 19.869 214.216 20.2926L215.544 21.7874ZM216.96 18.44C216.96 17.2979 216.549 16.3033 215.714 15.5415L214.366 17.0185C214.758 17.3767 214.96 17.8221 214.96 18.44H216.96ZM215.731 15.5574C214.87 14.734 213.691 14.4 212.36 14.4V16.4C213.376 16.4 213.983 16.6527 214.349 17.0026L215.731 15.5574ZM212.36 14.4H198.6V16.4H212.36V14.4ZM199.382 16.0236L202.222 12.4636L200.658 11.2164L197.818 14.7764L199.382 16.0236ZM200.454 12.0039L202.574 24.7639L204.546 24.4361L202.426 11.6761L200.454 12.0039ZM202.572 24.4455L200.452 38.0055L202.428 38.3145L204.548 24.7545L202.572 24.4455ZM237.441 10H238.441V9H237.441V10ZM237.441 36.64L236.742 37.3555L238.441 39.0141V36.64H237.441ZM234.041 33.32V32.32H231.585L233.342 34.0355L234.041 33.32ZM256.521 33.32H257.521V32.32H256.521V33.32ZM256.521 40V41H257.521V40H256.521ZM229.881 40H228.881V41H229.881V40ZM229.881 10V9H228.881V10H229.881ZM236.441 10V36.64H238.441V10H236.441ZM238.14 35.9245L234.74 32.6045L233.342 34.0355L236.742 37.3555L238.14 35.9245ZM234.041 34.32H256.521V32.32H234.041V34.32ZM255.521 33.32V40H257.521V33.32H255.521ZM256.521 39H229.881V41H256.521V39ZM230.881 40V10H228.881V40H230.881ZM229.881 11H237.441V9H229.881V11ZM265.554 33.96H264.554V34.96H265.554V33.96ZM265.554 27.88V26.88H264.554V27.88H265.554ZM286.274 27.88H287.274V26.88H286.274V27.88ZM286.274 33.96V34.96H287.274V33.96H286.274ZM280.994 10L281.902 9.58109L281.634 9H280.994V10ZM294.834 40V41H296.397L295.742 39.5811L294.834 40ZM286.794 40L285.88 40.4047L286.143 41H286.794V40ZM274.914 13.16V12.16H273.378L274 13.5647L274.914 13.16ZM277.234 13.16L278.149 13.5636L278.768 12.16H277.234V13.16ZM265.394 40V41H266.046L266.309 40.4036L265.394 40ZM257.354 40L256.446 39.5811L255.792 41H257.354V40ZM271.194 10V9H270.554L270.286 9.58109L271.194 10ZM266.554 33.96V27.88H264.554V33.96H266.554ZM265.554 28.88H286.274V26.88H265.554V28.88ZM285.274 27.88V33.96H287.274V27.88H285.274ZM286.274 32.96H265.554V34.96H286.274V32.96ZM280.086 10.4189L293.926 40.4189L295.742 39.5811L281.902 9.58109L280.086 10.4189ZM294.834 39H286.794V41H294.834V39ZM287.709 39.5953L275.829 12.7553L274 13.5647L285.88 40.4047L287.709 39.5953ZM274.914 14.16H277.234V12.16H274.914V14.16ZM276.319 12.7564L264.479 39.5964L266.309 40.4036L278.149 13.5636L276.319 12.7564ZM265.394 39H257.354V41H265.394V39ZM258.262 40.4189L272.102 10.4189L270.286 9.58109L256.446 39.5811L258.262 40.4189ZM271.194 11H280.994V9H271.194V11ZM329.051 27.6L330.045 27.7127L330.171 26.6H329.051V27.6ZM326.371 34.44L327.164 35.0487L327.168 35.0434L326.371 34.44ZM320.451 39L320.044 38.0866L320.044 38.0866L320.451 39ZM302.971 38.68L302.52 39.5726L302.524 39.5744L302.971 38.68ZM296.931 33.2L296.079 33.723L296.079 33.723L296.931 33.2ZM296.931 16.8L296.079 16.277L296.079 16.277L296.931 16.8ZM302.971 11.32L302.524 10.4256L302.52 10.4274L302.971 11.32ZM326.371 15.56L325.578 16.1687L325.578 16.1687L326.371 15.56ZM329.051 22.4V23.4H330.169L330.045 22.2885L329.051 22.4ZM321.451 22.4L320.47 22.5924L320.628 23.4H321.451V22.4ZM319.811 18.92L319.043 19.5602L319.048 19.5664L319.053 19.5725L319.811 18.92ZM316.611 16.72L316.233 17.6458L316.244 17.6505L316.256 17.6548L316.611 16.72ZM306.891 17.04L307.338 17.9344L307.345 17.9311L307.351 17.9278L306.891 17.04ZM303.571 20.16L304.44 20.6543L304.44 20.6543L303.571 20.16ZM303.571 29.84L302.702 30.3343L302.702 30.3343L303.571 29.84ZM306.891 33L306.431 33.8878L306.437 33.8911L306.444 33.8944L306.891 33ZM316.611 33.32L316.256 32.3852L316.249 32.3876L316.611 33.32ZM319.811 31.12L319.053 30.4675L319.048 30.4736L319.043 30.4798L319.811 31.12ZM321.451 27.6V26.6H320.625L320.469 27.4112L321.451 27.6ZM328.057 27.4873C327.783 29.9054 326.953 32.0138 325.574 33.8366L327.168 35.0434C328.776 32.9195 329.732 30.4679 330.045 27.7127L328.057 27.4873ZM325.578 33.8313C324.195 35.6336 322.36 37.0545 320.044 38.0866L320.858 39.9134C323.449 38.7588 325.56 37.1398 327.164 35.0487L325.578 33.8313ZM320.044 38.0866C317.739 39.1139 315.081 39.64 312.051 39.64V41.64C315.314 41.64 318.256 41.0728 320.858 39.9134L320.044 38.0866ZM312.051 39.64C308.739 39.64 305.87 39.0115 303.418 37.7856L302.524 39.5744C305.299 40.9618 308.483 41.64 312.051 41.64V39.64ZM303.422 37.7874C300.992 36.5598 299.121 34.8572 297.783 32.677L296.079 33.723C297.621 36.2362 299.777 38.1869 302.52 39.5726L303.422 37.7874ZM297.783 32.677C296.452 30.5078 295.771 27.9606 295.771 25H293.771C293.771 28.2794 294.53 31.1988 296.079 33.723L297.783 32.677ZM295.771 25C295.771 22.0394 296.452 19.4922 297.783 17.323L296.079 16.277C294.53 18.8012 293.771 21.7206 293.771 25H295.771ZM297.783 17.323C299.121 15.1428 300.992 13.4402 303.422 12.2126L302.52 10.4274C299.777 11.8131 297.621 13.7638 296.079 16.277L297.783 17.323ZM303.418 12.2144C305.87 10.9885 308.739 10.36 312.051 10.36V8.36C308.483 8.36 305.299 9.03818 302.524 10.4256L303.418 12.2144ZM312.051 10.36C315.081 10.36 317.739 10.8861 320.044 11.9134L320.858 10.0866C318.256 8.92721 315.314 8.36 312.051 8.36V10.36ZM320.044 11.9134C322.36 12.9455 324.195 14.3664 325.578 16.1687L327.164 14.9513C325.56 12.8602 323.449 11.2412 320.858 10.0866L320.044 11.9134ZM325.578 16.1687C326.952 17.9605 327.783 20.0656 328.057 22.5115L330.045 22.2885C329.733 19.5078 328.776 17.0528 327.164 14.9513L325.578 16.1687ZM329.051 21.4H321.451V23.4H329.051V21.4ZM322.432 22.2076C322.135 20.6939 321.519 19.371 320.569 18.2675L319.053 19.5725C319.756 20.389 320.233 21.3861 320.47 22.5924L322.432 22.2076ZM320.579 18.2798C319.654 17.17 318.437 16.3442 316.966 15.7852L316.256 17.6548C317.451 18.1091 318.368 18.75 319.043 19.5602L320.579 18.2798ZM316.989 15.7942C315.538 15.2021 313.885 14.92 312.051 14.92V16.92C313.683 16.92 315.07 17.1713 316.233 17.6458L316.989 15.7942ZM312.051 14.92C309.927 14.92 308.042 15.3166 306.431 16.1522L307.351 17.9278C308.62 17.2701 310.174 16.92 312.051 16.92V14.92ZM306.444 16.1456C304.832 16.9515 303.576 18.1282 302.702 19.6657L304.44 20.6543C305.113 19.4718 306.07 18.5685 307.338 17.9344L306.444 16.1456ZM302.702 19.6657C301.827 21.203 301.411 22.9935 301.411 25H303.411C303.411 23.2731 303.768 21.837 304.44 20.6543L302.702 19.6657ZM301.411 25C301.411 27.0065 301.827 28.797 302.702 30.3343L304.44 29.3457C303.768 28.163 303.411 26.7269 303.411 25H301.411ZM302.702 30.3343C303.574 31.8686 304.826 33.0556 306.431 33.8878L307.351 32.1122C306.076 31.451 305.114 30.5314 304.44 29.3457L302.702 30.3343ZM306.444 33.8944C308.052 34.6986 309.933 35.08 312.051 35.08V33.08C310.169 33.08 308.61 32.7414 307.338 32.1056L306.444 33.8944ZM312.051 35.08C313.88 35.08 315.527 34.8129 316.972 34.2524L316.249 32.3876C315.082 32.8404 313.689 33.08 312.051 33.08V35.08ZM316.966 34.2548C318.437 33.6958 319.654 32.87 320.579 31.7602L319.043 30.4798C318.368 31.29 317.451 31.9309 316.256 32.3852L316.966 34.2548ZM320.569 31.7725C321.522 30.6655 322.137 29.3269 322.433 27.7888L320.469 27.4112C320.231 28.6464 319.753 29.6545 319.053 30.4675L320.569 31.7725ZM321.451 28.6H329.051V26.6H321.451V28.6ZM333.279 40H332.279V41H333.279V40ZM333.279 10V9H332.279V10H333.279ZM340.799 10H341.799V9H340.799V10ZM340.799 33.96L340.192 34.7544L341.799 35.9836V33.96H340.799ZM338.759 32.4L337.976 31.7787L337.344 32.5762L338.152 33.1944L338.759 32.4ZM356.519 10V9H356.036L355.736 9.37872L356.519 10ZM364.519 10L365.295 10.6316L366.624 9H364.519V10ZM340.079 40V41H340.555L340.855 40.6316L340.079 40ZM347.639 25.48L346.987 24.7219L346.348 25.2719L346.782 25.9948L347.639 25.48ZM353.079 20.8L353.931 20.2751L353.315 19.2777L352.427 20.0419L353.079 20.8ZM364.919 40V41H366.711L365.771 39.4751L364.919 40ZM356.359 40L355.502 40.5148L355.793 41H356.359V40ZM334.279 40V10H332.279V40H334.279ZM333.279 11H340.799V9H333.279V11ZM339.799 10V33.96H341.799V10H339.799ZM341.407 33.1656L339.367 31.6056L338.152 33.1944L340.192 34.7544L341.407 33.1656ZM339.543 33.0213L357.303 10.6213L355.736 9.37872L337.976 31.7787L339.543 33.0213ZM356.519 11H364.519V9H356.519V11ZM363.744 9.36839L339.304 39.3684L340.855 40.6316L365.295 10.6316L363.744 9.36839ZM340.079 39H333.279V41H340.079V39ZM348.292 26.2381L353.732 21.5581L352.427 20.0419L346.987 24.7219L348.292 26.2381ZM352.228 21.3249L364.068 40.5249L365.771 39.4751L353.931 20.2751L352.228 21.3249ZM364.919 39H356.359V41H364.919V39ZM357.217 39.4852L348.497 24.9652L346.782 25.9948L355.502 40.5148L357.217 39.4852ZM380.748 22.48V21.48H379.748V22.48H380.748ZM402.468 22.48H403.468V21.48H402.468V22.48ZM402.468 28.92V29.92H403.468V28.92H402.468ZM380.748 28.92H379.748V29.92H380.748V28.92ZM403.188 10H404.188V9H403.188V10ZM403.188 16.44V17.44H404.188V16.44H403.188ZM380.908 16.44L380.201 15.7329L378.494 17.44H380.908V16.44ZM384.628 12.72H385.628V10.3058L383.921 12.0129L384.628 12.72ZM384.628 40V41H385.628V40H384.628ZM377.068 40H376.068V41H377.068V40ZM377.068 10V9H376.068V10H377.068ZM380.748 23.48H402.468V21.48H380.748V23.48ZM401.468 22.48V28.92H403.468V22.48H401.468ZM402.468 27.92H380.748V29.92H402.468V27.92ZM381.748 28.92V22.48H379.748V28.92H381.748ZM402.188 10V16.44H404.188V10H402.188ZM403.188 15.44H380.908V17.44H403.188V15.44ZM381.616 17.1471L385.336 13.4271L383.921 12.0129L380.201 15.7329L381.616 17.1471ZM383.628 12.72V40H385.628V12.72H383.628ZM384.628 39H377.068V41H384.628V39ZM378.068 40V10H376.068V40H378.068ZM377.068 11H403.188V9H377.068V11ZM412.816 23.2V22.2H411.816V23.2H412.816ZM427.416 22.24L428.028 23.0307L428.036 23.0246L428.044 23.0184L427.416 22.24ZM427.416 16.76L426.788 17.5384L426.796 17.5446L426.804 17.5507L427.416 16.76ZM411.736 15.76L410.998 15.0854L409.468 16.76H411.736V15.76ZM415.136 12.04H416.136V9.46362L414.398 11.3654L415.136 12.04ZM415.136 40V41H416.136V40H415.136ZM407.576 40H406.576V41H407.576V40ZM407.576 10V9H406.576V10H407.576ZM430.936 11.2L430.506 12.1029L430.506 12.1029L430.936 11.2ZM434.856 14.52L435.691 13.9689L435.691 13.9689L434.856 14.52ZM434.856 24.4L435.691 24.9511L435.691 24.9511L434.856 24.4ZM430.936 27.72L431.354 28.6285L431.366 28.6229L430.936 27.72ZM412.816 28.88H411.816V29.88H412.816V28.88ZM417.656 25.96V24.96H415.625L416.864 26.5697L417.656 25.96ZM426.176 25.96L426.962 25.3419L426.662 24.96H426.176V25.96ZM437.216 40V41H439.275L438.002 39.3819L437.216 40ZM428.456 40L427.664 40.6097L427.964 41H428.456V40ZM412.816 24.2H424.056V22.2H412.816V24.2ZM424.056 24.2C425.614 24.2 426.974 23.8472 428.028 23.0307L426.804 21.4493C426.205 21.9128 425.325 22.2 424.056 22.2V24.2ZM428.044 23.0184C429.133 22.1404 429.656 20.9197 429.656 19.48H427.656C427.656 20.387 427.353 21.0063 426.788 21.4616L428.044 23.0184ZM429.656 19.48C429.656 18.0405 429.132 16.8236 428.028 15.9693L426.804 17.5507C427.354 17.9764 427.656 18.5729 427.656 19.48H429.656ZM428.044 15.9816C426.988 15.1303 425.622 14.76 424.056 14.76V16.76C425.317 16.76 426.191 17.0564 426.788 17.5384L428.044 15.9816ZM424.056 14.76H411.736V16.76H424.056V14.76ZM412.474 16.4346L415.874 12.7146L414.398 11.3654L410.998 15.0854L412.474 16.4346ZM414.136 12.04V40H416.136V12.04H414.136ZM415.136 39H407.576V41H415.136V39ZM408.576 40V10H406.576V40H408.576ZM407.576 11H425.056V9H407.576V11ZM425.056 11C427.177 11 428.985 11.3785 430.506 12.1029L431.366 10.2971C429.527 9.42147 427.415 9 425.056 9V11ZM430.506 12.1029C432.039 12.8326 433.199 13.8244 434.022 15.0711L435.691 13.9689C434.647 12.389 433.194 11.1674 431.366 10.2971L430.506 12.1029ZM434.022 15.0711C434.835 16.302 435.256 17.7587 435.256 19.48H437.256C437.256 17.4146 436.744 15.5647 435.691 13.9689L434.022 15.0711ZM435.256 19.48C435.256 21.1715 434.836 22.6156 434.022 23.8489L435.691 24.9511C436.743 23.3577 437.256 21.5218 437.256 19.48H435.256ZM434.022 23.8489C433.199 25.0956 432.039 26.0874 430.506 26.8171L431.366 28.6229C433.194 27.7526 434.647 26.531 435.691 24.9511L434.022 23.8489ZM430.518 26.8116C428.994 27.5132 427.182 27.88 425.056 27.88V29.88C427.411 29.88 429.519 29.4734 431.354 28.6284L430.518 26.8116ZM425.056 27.88H412.816V29.88H425.056V27.88ZM413.816 28.88V23.2H411.816V28.88H413.816ZM417.656 26.96H426.176V24.96H417.656V26.96ZM425.39 26.5781L436.43 40.6181L438.002 39.3819L426.962 25.3419L425.39 26.5781ZM437.216 39H428.456V41H437.216V39ZM429.249 39.3903L418.449 25.3503L416.864 26.5697L427.664 40.6097L429.249 39.3903ZM441.17 10V9H440.17V10H441.17ZM448.73 10H449.73V9H448.73V10ZM448.73 40V41H449.73V40H448.73ZM441.17 40H440.17V41H441.17V40ZM441.17 11H448.73V9H441.17V11ZM447.73 10V40H449.73V10H447.73ZM448.73 39H441.17V41H448.73V39ZM442.17 40V10H440.17V40H442.17ZM478.448 11.88L478.02 12.7834L478.02 12.7834L478.448 11.88ZM484.608 17.12L483.772 17.6678L483.776 17.6747L484.608 17.12ZM484.608 32.88L483.773 32.3298L483.772 32.3322L484.608 32.88ZM478.448 38.12L478.02 37.2166L478.02 37.2166L478.448 38.12ZM454.568 40H453.568V41H454.568V40ZM454.568 10V9H453.568V10H454.568ZM462.088 36.92L461.389 37.6348L463.088 39.2972V36.92H462.088ZM458.408 33.32V32.32H455.956L457.709 34.0348L458.408 33.32ZM474.768 32.28L474.328 31.3822L474.328 31.3822L474.768 32.28ZM478.048 29.4L478.894 29.9333L478.899 29.9251L478.048 29.4ZM478.048 20.6L477.203 21.1333L478.048 20.6ZM474.768 17.72L475.209 16.8222L475.209 16.8222L474.768 17.72ZM458.408 16.68L457.709 15.9652L455.956 17.68H458.408V16.68ZM462.088 13.08H463.088V10.7028L461.389 12.3652L462.088 13.08ZM469.208 11C472.61 11 475.538 11.6053 478.02 12.7834L478.877 10.9766C476.079 9.64799 472.847 9 469.208 9V11ZM478.02 12.7834C480.509 13.9653 482.415 15.5955 483.772 17.6678L485.445 16.5722C483.869 14.1645 481.668 12.3013 478.877 10.9766L478.02 12.7834ZM483.776 17.6747C485.147 19.7312 485.848 22.1597 485.848 25H487.848C487.848 21.8137 487.056 18.9888 485.44 16.5653L483.776 17.6747ZM485.848 25C485.848 27.8115 485.148 30.2427 483.773 32.3298L485.444 33.4302C487.055 30.9839 487.848 28.1618 487.848 25H485.848ZM483.772 32.3322C482.415 34.4045 480.509 36.0347 478.02 37.2166L478.877 39.0234C481.668 37.6987 483.869 35.8355 485.445 33.4278L483.772 32.3322ZM478.02 37.2166C475.538 38.3947 472.61 39 469.208 39V41C472.847 41 476.079 40.352 478.877 39.0234L478.02 37.2166ZM469.208 39H454.568V41H469.208V39ZM455.568 40V10H453.568V40H455.568ZM454.568 11H469.208V9H454.568V11ZM462.788 36.2052L459.108 32.6052L457.709 34.0348L461.389 37.6348L462.788 36.2052ZM458.408 34.32H469.768V32.32H458.408V34.32ZM469.768 34.32C471.808 34.32 473.632 33.9515 475.209 33.1778L474.328 31.3822C473.079 31.9951 471.569 32.32 469.768 32.32V34.32ZM475.209 33.1778C476.774 32.4101 478.014 31.33 478.894 29.9333L477.203 28.8667C476.536 29.9233 475.59 30.7632 474.328 31.3822L475.209 33.1778ZM478.899 29.9251C479.783 28.4927 480.208 26.8388 480.208 25H478.208C478.208 26.5212 477.86 27.8007 477.197 28.8749L478.899 29.9251ZM480.208 25C480.208 23.1385 479.785 21.4795 478.894 20.0667L477.203 21.1333C477.859 22.1739 478.208 23.4482 478.208 25H480.208ZM478.894 20.0667C478.014 18.67 476.774 17.5899 475.209 16.8222L474.328 18.6178C475.59 19.2368 476.536 20.0767 477.203 21.1333L478.894 20.0667ZM475.209 16.8222C473.632 16.0485 471.808 15.68 469.768 15.68V17.68C471.569 17.68 473.079 18.0049 474.328 18.6178L475.209 16.8222ZM469.768 15.68H458.408V17.68H469.768V15.68ZM459.108 17.3948L462.788 13.7948L461.389 12.3652L457.709 15.9652L459.108 17.3948ZM461.088 13.08V36.92H463.088V13.08H461.088ZM494.851 33.96H493.851V34.96H494.851V33.96ZM494.851 27.88V26.88H493.851V27.88H494.851ZM515.571 27.88H516.571V26.88H515.571V27.88ZM515.571 33.96V34.96H516.571V33.96H515.571ZM510.291 10L511.199 9.58109L510.931 9H510.291V10ZM524.131 40V41H525.694L525.039 39.5811L524.131 40ZM516.091 40L515.177 40.4047L515.44 41H516.091V40ZM504.211 13.16V12.16H502.675L503.297 13.5647L504.211 13.16ZM506.531 13.16L507.446 13.5636L508.065 12.16H506.531V13.16ZM494.691 40V41H495.343L495.606 40.4036L494.691 40ZM486.651 40L485.743 39.5811L485.089 41H486.651V40ZM500.491 10V9H499.851L499.583 9.58109L500.491 10ZM495.851 33.96V27.88H493.851V33.96H495.851ZM494.851 28.88H515.571V26.88H494.851V28.88ZM514.571 27.88V33.96H516.571V27.88H514.571ZM515.571 32.96H494.851V34.96H515.571V32.96ZM509.383 10.4189L523.223 40.4189L525.039 39.5811L511.199 9.58109L509.383 10.4189ZM524.131 39H516.091V41H524.131V39ZM517.006 39.5953L505.126 12.7553L503.297 13.5647L515.177 40.4047L517.006 39.5953ZM504.211 14.16H506.531V12.16H504.211V14.16ZM505.616 12.7564L493.776 39.5964L495.606 40.4036L507.446 13.5636L505.616 12.7564ZM494.691 39H486.651V41H494.691V39ZM487.559 40.4189L501.399 10.4189L499.583 9.58109L485.743 39.5811L487.559 40.4189ZM500.491 11H510.291V9H500.491V11ZM532.378 40H531.378V41H532.378V40ZM532.378 25.48V24.48H531.378V25.48H532.378ZM539.938 25.48H540.938V24.48H539.938V25.48ZM539.938 40V41H540.938V40H539.938ZM518.298 10V9H516.24L517.511 10.6178L518.298 10ZM526.658 10L527.444 9.38179L527.143 9H526.658V10ZM537.858 24.24V25.24H539.916L538.644 23.6218L537.858 24.24ZM534.378 24.24L533.591 23.6218L532.319 25.24H534.378V24.24ZM545.578 10V9H545.092L544.791 9.38179L545.578 10ZM553.938 10L554.723 10.6184L555.997 9H553.938V10ZM538.578 29.52L538.594 30.5199L539.069 30.5121L539.363 30.1384L538.578 29.52ZM533.698 29.6L532.911 30.2178L533.218 30.608L533.714 30.5999L533.698 29.6ZM533.378 40V25.48H531.378V40H533.378ZM532.378 26.48H539.938V24.48H532.378V26.48ZM538.938 25.48V40H540.938V25.48H538.938ZM539.938 39H532.378V41H539.938V39ZM518.298 11H526.658V9H518.298V11ZM525.871 10.6182L537.071 24.8582L538.644 23.6218L527.444 9.38179L525.871 10.6182ZM537.858 23.24H534.378V25.24H537.858V23.24ZM535.164 24.8582L546.364 10.6182L544.791 9.38179L533.591 23.6218L535.164 24.8582ZM545.578 11H553.938V9H545.578V11ZM553.152 9.38161L537.792 28.9016L539.363 30.1384L554.723 10.6184L553.152 9.38161ZM538.561 28.5201L533.681 28.6001L533.714 30.5999L538.594 30.5199L538.561 28.5201ZM534.484 28.9822L519.084 9.38218L517.511 10.6178L532.911 30.2178L534.484 28.9822Z" fill="#8F8FFF" mask="url(#path-3-outside-2_139_960)"/>
<path d="M600.543 10.5307L606.686 28.2924M606.686 28.2924L606.242 45.7076M606.686 28.2924L587 41.722M606.686 28.2924L625.853 29.5054M606.686 28.2924L617.343 1M606.686 28.2924L633.032 42.5018M606.686 28.2924L596.251 46.9206M606.686 28.2924L587.962 11.7437M606.686 28.2924L624.669 15.4693M606.686 28.2924L590.478 26.8195M606.686 28.2924L617.343 49" stroke="#FE64FA" stroke-width="2.4"/>
</svg>
