<svg width="111" height="26" viewBox="0 0 111 26" fill="none" xmlns="http://www.w3.org/2000/svg">
<mask id="mask0_1395_29" style="mask-type:alpha" maskUnits="userSpaceOnUse" x="0" y="0" width="111" height="26">
<path fill-rule="evenodd" clip-rule="evenodd" d="M0 0.888916H110.25V25.3889H0V0.888916Z" fill="white"/>
</mask>
<g mask="url(#mask0_1395_29)">
<path fill-rule="evenodd" clip-rule="evenodd" d="M7.42649 12.6653C10.0414 12.6653 11.7152 12.2256 12.9359 11.2441C14.0166 10.3641 14.5394 9.17994 14.5394 7.72485C14.5394 5.93113 13.738 4.71308 12.4829 3.90088C11.1225 3.02095 9.44925 2.78442 6.62501 2.78442H2.12749L2.12695 12.6653H7.42649ZM0.000536826 0.888916L6.76454 0.889437C9.69346 0.889437 11.9599 1.22807 13.7384 2.34505C15.4466 3.42764 16.6668 5.18698 16.6668 7.62359C16.6674 9.85702 15.6211 11.6841 14.0171 12.8005C12.8666 13.6133 11.5069 14.0191 9.93771 14.2562L18.375 25.3884L15.795 25.3889L7.56602 14.4249H2.12744L2.1269 25.3884H0L0.000536826 0.888916Z" fill="white"/>
<path fill-rule="evenodd" clip-rule="evenodd" d="M42.8754 8.54517H44.4062L44.4059 25.3889H42.875L42.8754 8.54517Z" fill="white"/>
<path fill-rule="evenodd" clip-rule="evenodd" d="M50.9518 21.9152C52.8108 23.0292 55.195 23.6195 57.474 23.6195C60.3846 23.6195 62.2436 22.669 62.2441 20.7356C62.2436 18.3109 59.368 18.0485 56.6684 17.655C53.7929 17.2291 50.5312 16.4426 50.5312 13.1657C50.5318 10.1178 53.3015 8.54517 57.2294 8.54517C59.4733 8.54517 61.7533 9.06937 63.4368 9.92153L63.4362 11.9533C61.6129 10.8721 59.2983 10.3151 57.1597 10.3151C54.4591 10.3151 52.6007 11.1995 52.6002 13.035C52.6007 15.2958 55.4061 15.5253 58.0004 15.9189C61.1216 16.3775 64.3125 17.1636 64.3125 20.5717C64.3125 23.7507 61.5422 25.3889 57.3692 25.3889C55.0897 25.3889 52.7049 24.897 50.9518 23.9798V21.9152Z" fill="white"/>
<path fill-rule="evenodd" clip-rule="evenodd" d="M70.699 19.494L70.6995 10.5374H67.375L67.3755 8.8247H70.6995V4.28046L72.7007 3.95142V8.82521H78.0938V10.5374H72.7007V19.165C72.7007 21.6016 73.073 23.6104 75.7192 23.6109C76.6007 23.6104 77.4488 23.3802 78.0938 23.0177L78.0932 24.8621C77.4488 25.1582 76.4654 25.3889 75.4476 25.3889C74.2266 25.3889 72.8359 25.0594 71.886 24.0053C71.0379 23.0506 70.699 21.6016 70.699 19.494Z" fill="white"/>
<path fill-rule="evenodd" clip-rule="evenodd" d="M91.8261 21.7583V18.1282C90.5743 17.7687 89.1259 17.5396 87.8082 17.5396C85.5035 17.5396 83.1323 18.2586 83.1328 20.6465C83.1323 22.7397 84.9432 23.6552 86.919 23.6557C88.7634 23.6557 90.5414 22.8707 91.8261 21.7583ZM82.8354 24.2766C81.7819 23.492 81.1562 22.3147 81.1562 20.8101C81.1562 19.1091 81.9466 17.8991 83.1979 17.0813C84.4167 16.2968 86.0629 16.0027 87.6436 16.0022C89.1256 16.0022 90.4752 16.2314 91.8258 16.5914V14.7273C91.8258 13.1572 91.5292 12.1435 90.6404 11.3585C89.8825 10.7044 88.7636 10.3444 87.3141 10.3444C85.4048 10.3444 83.6592 10.9657 82.3421 11.9144V9.98482C83.6592 9.16655 85.4702 8.54567 87.5123 8.54517C89.4551 8.54567 91.0354 9.03613 92.1224 9.95208C93.2083 10.868 93.7685 12.3067 93.7685 14.2695V21.2356C93.768 22.6093 94.0971 23.6235 95.4147 23.623C95.8097 23.623 96.1722 23.5253 96.4688 23.3616L96.4682 25.0299C96.1063 25.193 95.6125 25.2912 95.0522 25.2912C93.6692 25.2912 92.5827 24.6371 92.1219 23.3939H92.0559C90.8377 24.4407 88.8619 25.3889 86.6555 25.3889C85.2725 25.3889 83.8894 25.0621 82.8354 24.2766Z" fill="white"/>
<path fill-rule="evenodd" clip-rule="evenodd" d="M102.855 19.4945L102.856 10.5374H99.5312L99.5318 8.82521H102.856V4.28097L104.857 3.95142V8.82521H110.25V10.5374H104.857V19.165C104.857 21.6021 105.229 23.6109 107.875 23.6109C108.757 23.6109 109.605 23.3802 110.25 23.0182L110.249 24.8621C109.605 25.1587 108.622 25.3889 107.604 25.3889C106.383 25.3889 104.992 25.0599 104.042 24.0058C103.194 23.0511 102.855 21.6021 102.855 19.4945Z" fill="white"/>
<path fill-rule="evenodd" clip-rule="evenodd" d="M32.4409 14.5718C32.9102 15.2463 33.1848 16.0707 33.1848 16.9673C33.1848 19.2614 31.4079 21.0964 29.094 21.0964C26.7807 21.0964 25.0032 19.2609 25.0032 16.9673C25.0032 14.6737 26.7807 12.8382 29.0945 12.8382C30.1265 12.8382 31.0501 13.2055 31.7584 13.814L34.7656 10.2555C33.2276 9.17785 31.2772 8.54567 29.0945 8.54517C23.8298 8.54517 19.9068 12.2156 19.9062 16.9673C19.9062 21.719 23.8298 25.3889 29.094 25.3889C34.3582 25.3894 38.2812 21.7195 38.2812 16.9678C38.2812 14.9936 37.6029 13.208 36.4341 11.7928L32.4409 14.5718Z" fill="#2589FF"/>
<path fill-rule="evenodd" clip-rule="evenodd" d="M43.5456 5.48267L47.4688 2.52505C46.999 1.90862 46.4486 1.35876 45.8293 0.888916L42.875 4.67561C43.1291 4.91187 43.3533 5.18358 43.5456 5.48267Z" fill="#2589FF"/>
</g>
</svg>
