<svg width="189" height="138" viewBox="0 0 189 138" fill="none" xmlns="http://www.w3.org/2000/svg">
<rect y="97.9536" width="187" height="46" rx="23" transform="rotate(-29.4544 0 97.9536)" fill="#FFEB1C"/>
<path d="M57.9597 95.1646L63.435 92.0726C63.6638 92.3476 63.9735 92.5219 64.3641 92.5953C64.7468 92.6548 65.2035 92.6174 65.734 92.4832C66.2567 92.335 66.8385 92.0799 67.4794 91.718C68.3153 91.246 68.9159 90.7965 69.2813 90.3697C69.6605 89.935 69.744 89.5296 69.5315 89.1534C69.3899 88.9027 69.1395 88.7684 68.7804 88.7507C68.4134 88.7191 67.8032 88.9075 66.9498 89.316L64.264 90.6122C61.823 91.7886 59.84 92.2469 58.3152 91.9871C56.7904 91.7273 55.6346 90.9009 54.8478 89.5077C54.1869 88.3374 53.9705 87.1733 54.1987 86.0155C54.4268 84.8576 55.0298 83.7454 56.0077 82.6786C56.9995 81.6041 58.3034 80.6104 59.9195 79.6978C61.4938 78.8087 63.0129 78.2449 64.4768 78.0062C65.9467 77.7457 67.2611 77.8119 68.4201 78.2048C69.593 78.5898 70.5133 79.2921 71.1809 80.3115L65.7056 83.4036C65.5222 83.1764 65.2609 83.0391 64.9218 82.9917C64.5966 82.9365 64.1975 82.9782 63.7245 83.1167C63.2515 83.2552 62.7154 83.4936 62.1163 83.8319C61.3501 84.2646 60.7873 84.6835 60.428 85.0885C60.0827 85.4856 60.0084 85.8584 60.205 86.2067C60.3388 86.4435 60.5783 86.5747 60.9235 86.6003C61.2826 86.618 61.8471 86.4462 62.6169 86.0849L65.6489 84.6208C67.2364 83.8529 68.6062 83.3825 69.7581 83.2098C70.9022 83.0231 71.8672 83.1212 72.6531 83.5043C73.453 83.8794 74.1126 84.5268 74.6318 85.4463C75.2849 86.6026 75.5139 87.8055 75.3191 89.0548C75.1242 90.3041 74.5445 91.5226 73.5799 92.7105C72.6214 93.8765 71.3201 94.9237 69.6762 95.8521C67.9765 96.812 66.3559 97.4239 64.8146 97.688C63.2732 97.9521 61.9042 97.8707 60.7077 97.4439C59.5251 97.0093 58.6091 96.2495 57.9597 95.1646ZM81.6447 85.1242L79.2253 80.8402L89.9042 74.8096L92.3235 79.0937L81.6447 85.1242ZM83.3084 66.9857L99.035 78.7764L93.288 82.0218L80.3697 71.7873L81.749 71.0084L83.8422 87.3561L78.0953 90.6016L76.1195 71.0454L83.3084 66.9857ZM97.3956 59.0303L104.901 72.3214L101.108 71.2662L112.769 64.681L115.484 69.4875L100.855 77.7486L92.0039 62.0751L97.3956 59.0303ZM126.313 50.5827L128.414 54.3025L116.607 60.9704L114.506 57.2506L126.313 50.5827ZM119.255 57.0216L121.587 63.395L118.264 62.2946L130.155 55.5795L132.562 59.8427L117.391 68.4106L114.114 59.9248L108.539 52.7372L123.607 44.2282L126.014 48.4914L114.228 55.1475L115.001 51.734L119.255 57.0216Z" fill="#151515"/>
<circle cx="163" cy="31" r="3" fill="#151515"/>
<circle cx="182" cy="5" r="3" fill="#151515"/>
<path d="M182.389 3.59114C185.892 6.45234 188.21 10.7144 188.832 15.4398C189.455 20.1651 188.331 24.9667 185.708 28.7882C183.085 32.6096 179.178 35.138 174.847 35.817C170.515 36.496 166.114 35.2701 162.611 32.4089L163.923 30.4964C166.961 32.9779 170.779 34.0411 174.535 33.4522C178.292 32.8633 181.68 30.6705 183.955 27.3563C186.23 24.042 187.204 19.8778 186.665 15.7796C186.125 11.6814 184.115 7.98502 181.077 5.50358L182.389 3.59114Z" fill="white"/>
</svg>
